<svg width="597" height="92" viewBox="0 0 597 92" fill="none" xmlns="http://www.w3.org/2000/svg">
<g filter="url(#filter0_d_4168_28)">
<ellipse cx="23.6639" cy="61.8749" rx="15.537" ry="15.9159" fill="black"/>
<path d="M31.6218 69.4538C33.1376 68.6959 36.5481 66.0432 36.9271 63.3906C37.149 61.8368 36.9783 58.9695 36.7717 56.7517C36.4955 56.0067 36.1607 55.2912 35.7733 54.6113C35.722 54.5629 35.6693 54.516 35.6152 54.4705C35.6895 54.784 35.7492 55.1055 35.7901 55.4325C36.0572 57.5694 34.0651 59.5179 32.0697 60.8801C32.6847 62.9323 32.8673 65.1645 32.3797 67.1801C32.1847 67.9859 31.9132 68.7516 31.5794 69.4746C31.5937 69.4677 31.6078 69.4607 31.6218 69.4538Z" fill="#E51717"/>
<path d="M17.7098 58.7108C16.6377 60.1993 15.7723 61.9238 15.3269 63.7695C15.1124 64.6586 14.9514 65.5446 14.8461 66.4125C17.8426 68.9476 21.4639 70.1117 23.574 70.4669C24.0299 69.7833 24.4495 69.063 24.8007 68.3169C25.696 66.4149 26.1909 64.3951 26.4219 62.4305C23.6492 62.0854 19.9595 60.8751 17.7098 58.7108Z" fill="#E51717"/>
<path d="M30.3481 57.1557C31.0656 58.2415 31.6624 59.5213 32.0697 60.8801C34.0651 59.5179 36.0572 57.5694 35.7901 55.4325C35.7492 55.1055 35.6895 54.784 35.6152 54.4705C34.6649 53.6715 33.3018 53.3239 31.9255 53.2074C32.2354 53.7798 32.3797 54.4278 32.3797 55.1699C32.3797 56.2912 31.5319 56.8907 30.3481 57.1557Z" fill="#E51717"/>
<path d="M24.8007 68.3169C24.4495 69.063 24.0299 69.7833 23.574 70.4669C24.0793 70.5519 24.498 70.5906 24.8007 70.5906C26.678 70.5906 30.0433 70.2186 31.5794 69.4746C31.9132 68.7516 32.1847 67.9859 32.3797 67.1801C32.8673 65.1645 32.6847 62.9323 32.0697 60.8801C31.2341 61.4505 30.398 61.9181 29.7269 62.2536C29.1304 62.5519 27.9078 62.6154 26.4219 62.4305C26.1909 64.3951 25.696 66.4149 24.8007 68.3169Z" fill="#B41212"/>
<path d="M17.7098 58.7108C19.9595 60.8751 23.6492 62.0854 26.4219 62.4305C26.6398 60.5772 26.6227 58.7731 26.4854 57.1635C26.1037 57.1066 25.7339 57.0374 25.3876 56.9601C23.9868 56.6475 22.3977 55.9934 21.223 55.147C19.987 56.0425 18.7509 57.2654 17.7098 58.7108Z" fill="#FF2626"/>
<path d="M26.4219 62.4305C27.9078 62.6154 29.1304 62.5519 29.7269 62.2536C30.398 61.9181 31.2341 61.4505 32.0697 60.8801C31.6624 59.5213 31.0656 58.2415 30.3481 57.1557C29.2184 57.4086 27.7826 57.3569 26.4854 57.1635C26.6227 58.7731 26.6398 60.5772 26.4219 62.4305Z" fill="#8B0505"/>
<path d="M15.3269 63.7695C15.7723 61.9238 16.6377 60.1993 17.7098 58.7108C16.5699 57.6142 15.7997 56.2727 15.7057 54.6746C15.6749 54.1508 15.6908 53.6617 15.7465 53.2054C13.9407 53.8173 12.2281 54.8889 10.8934 56.6165C10.5711 58.9065 10.8151 61.7317 12.6741 64.1485C13.3309 65.0023 14.0674 65.7537 14.8461 66.4125C14.9514 65.5446 15.1124 64.6586 15.3269 63.7695Z" fill="#FF3636"/>
<path d="M23.574 70.4669C21.4639 70.1117 17.8426 68.9476 14.8461 66.4125C14.6286 68.2052 14.6487 69.9207 14.925 71.4273C16.4717 72.5303 18.2245 73.5967 20.3956 74.3085C21.405 73.2819 22.5764 71.9625 23.574 70.4669Z" fill="#990000"/>
<path d="M24.8007 70.5906C24.498 70.5906 24.0793 70.5519 23.574 70.4669C22.5764 71.9625 21.405 73.2819 20.3956 74.3085C21.6982 74.7355 23.1513 75.0349 24.8007 75.138C25.5158 75.1827 26.2151 75.1431 26.8924 75.0377C28.7826 73.6884 30.5042 71.8035 31.5794 69.4746C30.0433 70.2186 26.678 70.5906 24.8007 70.5906Z" fill="#FF3434"/>
<path d="M14.8461 66.4125C14.0674 65.7537 13.3309 65.0023 12.6741 64.1485C10.8151 61.7317 10.5711 58.9065 10.8934 56.6165C10.6941 56.8745 10.5033 57.147 10.3218 57.4349C9.88089 58.8334 9.64267 60.3255 9.64267 61.8748C9.64267 63.9303 10.062 65.8852 10.8176 67.6543C11.2289 68.3924 11.7177 69.0205 12.2953 69.4538C13.1276 70.078 13.9885 70.7594 14.925 71.4273C14.6487 69.9207 14.6286 68.2052 14.8461 66.4125Z" fill="#FF1616"/>
<path d="M25.9589 49.9811C25.6762 49.0279 25.2409 48.0563 24.7076 47.514C24.363 47.4879 24.0149 47.4747 23.6638 47.4747C22.2782 47.4747 20.9396 47.6811 19.6754 48.0656C19.4297 48.1742 19.1819 48.2987 18.9365 48.4403C20.0173 48.6012 21.1398 49.196 22.1583 49.9518C23.4604 49.6137 24.9184 49.7492 25.9589 49.9811Z" fill="#DB0707"/>
<path d="M31.2832 49.7844C29.3637 48.5058 27.1206 47.6963 24.7076 47.514C25.2409 48.0563 25.6762 49.0279 25.9589 49.9811C26.2058 50.0361 26.4292 50.0965 26.6215 50.1574C27.4631 50.3772 28.2013 50.6119 28.8433 50.8678C29.6997 50.3542 30.6076 49.9365 31.2832 49.7844Z" fill="#FF4141"/>
<path d="M31.9255 53.2074C33.3018 53.3239 34.6649 53.6715 35.6152 54.4705C35.5977 54.3964 35.5793 54.3228 35.5601 54.2496C34.4699 52.4592 33.0071 50.9327 31.2832 49.7844C30.6076 49.9365 29.6997 50.3542 28.8433 50.8678C30.4098 51.4922 31.4031 52.2424 31.9255 53.2074Z" fill="#7A1A1A"/>
<path d="M20.0406 51.2315C19.6824 51.668 19.5139 52.1046 19.4968 52.5317C21.9448 52.4304 24.2043 52.9305 25.5588 53.5377C24.9974 52.602 23.6965 51.0933 22.1583 49.9518C21.345 50.163 20.5925 50.5589 20.0406 51.2315Z" fill="#FF5C5C"/>
<path d="M19.4968 52.5317C19.4587 53.4858 20.1763 54.3928 21.223 55.147C22.8048 54.001 24.3864 53.3912 25.5588 53.5377C24.2043 52.9305 21.9448 52.4304 19.4968 52.5317Z" fill="#760E0E"/>
<path d="M32.3797 55.1699C32.3797 54.4278 32.2354 53.7798 31.9255 53.2074C31.4031 52.2424 30.4098 51.4922 28.8433 50.8678C28.2013 50.6119 27.4631 50.3772 26.6215 50.1574C26.4292 50.0965 26.2058 50.0361 25.9589 49.9811C24.9184 49.7492 23.4604 49.6137 22.1583 49.9518C23.6965 51.0933 24.9974 52.602 25.5588 53.5377C24.3864 53.3912 22.8048 54.001 21.223 55.147C22.3977 55.9934 23.9868 56.6475 25.3876 56.9601C25.7339 57.0374 26.1037 57.1066 26.4854 57.1635C27.7826 57.3569 29.2184 57.4086 30.3481 57.1557C31.5319 56.8907 32.3797 56.2912 32.3797 55.1699Z" fill="#9F0000"/>
<path d="M15.5942 73.6524C16.6777 74.4368 17.8742 75.0675 19.1537 75.5137C19.5134 75.1794 19.9378 74.7741 20.3956 74.3085C18.2245 73.5967 16.4717 72.5303 14.925 71.4273C15.0733 72.236 15.2954 72.9845 15.5942 73.6524Z" fill="#FF4242"/>
<path d="M23.6638 76.2749C24.0949 76.2749 24.5214 76.2549 24.9425 76.2158C25.5994 75.8862 26.2555 75.4924 26.8924 75.0377C26.2151 75.1431 25.5158 75.1827 24.8007 75.138C23.1513 75.0349 21.6982 74.7355 20.3956 74.3085C19.9378 74.7741 19.5134 75.1794 19.1537 75.5137C20.569 76.0072 22.086 76.2749 23.6638 76.2749Z" fill="#B70000"/>
<path d="M15.5942 73.6524C15.2954 72.9845 15.0733 72.236 14.925 71.4273C13.9885 70.7594 13.1276 70.078 12.2953 69.4538C11.7177 69.0205 11.2289 68.3924 10.8176 67.6543C11.8514 70.0744 13.5145 72.1466 15.5942 73.6524Z" fill="#FF5858"/>
<path d="M34.6119 70.872C33.1018 72.3515 30.2713 74.5121 26.8924 75.0377C26.2555 75.4924 25.5994 75.8862 24.9425 76.2158C28.8486 75.8531 32.2925 73.8452 34.6119 70.872Z" fill="#FF2626"/>
<path d="M36.9271 63.3906C36.5481 66.0432 33.1376 68.6959 31.6218 69.4538C31.6078 69.4607 31.5937 69.4677 31.5794 69.4746C30.5042 71.8035 28.7826 73.6884 26.8924 75.0377C30.2713 74.5121 33.1018 72.3515 34.6119 70.872C35.0807 70.2712 35.5035 69.6309 35.8749 68.9569C37.0272 66.8657 37.685 64.4491 37.685 61.8748C37.685 60.0703 37.3618 58.3434 36.7717 56.7517C36.9783 58.9695 37.149 61.8368 36.9271 63.3906Z" fill="#B50000"/>
<path d="M15.7057 54.6746C15.7997 56.2727 16.5699 57.6142 17.7098 58.7108C18.7509 57.2654 19.987 56.0425 21.223 55.147C20.1763 54.3928 19.4587 53.4858 19.4968 52.5317C18.264 52.5827 16.9834 52.7862 15.7465 53.2054C15.6908 53.6617 15.6749 54.1508 15.7057 54.6746Z" fill="white"/>
<path d="M18.6811 48.4105C15.3825 49.6988 12.6799 52.2289 11.1147 55.4447C11.0268 55.8146 10.9511 56.207 10.8934 56.6165C12.2281 54.8889 13.9407 53.8173 15.7465 53.2054C16.0405 50.7967 17.4432 49.302 18.9365 48.4403C18.8511 48.4276 18.7659 48.4176 18.6811 48.4105Z" fill="#CA0000"/>
<path d="M15.7465 53.2054C16.9834 52.7862 18.264 52.5827 19.4968 52.5317C19.5139 52.1046 19.6824 51.668 20.0406 51.2315C20.5925 50.5589 21.345 50.163 22.1583 49.9518C21.1398 49.196 20.0173 48.6012 18.9365 48.4403C17.4432 49.302 16.0405 50.7967 15.7465 53.2054Z" fill="white"/>
<path d="M25.5588 53.5377C24.3864 53.3912 22.8048 54.001 21.223 55.147M25.5588 53.5377C24.2043 52.9305 21.9448 52.4304 19.4968 52.5317M25.5588 53.5377C24.9974 52.602 23.6965 51.0933 22.1583 49.9518M16.8426 75.5168C16.3336 75.0078 15.9187 74.3776 15.5942 73.6524M25.9375 53.5379C26.1606 54.5415 26.3674 55.7807 26.4854 57.1635M18.7375 75.8959C18.8633 75.7815 19.0028 75.6539 19.1537 75.5137M26.3165 53.9168C27.7801 54.2095 29.2146 55.4405 30.3481 57.1557M22.9059 77.0328C23.5719 76.833 24.2577 76.5593 24.9425 76.2158M26.6954 53.5379C26.9217 53.5379 29.445 52.9974 31.9255 53.2074M38.0639 63.0117C38.1902 61.3696 37.9881 57.479 36.1692 55.0537C36.0493 54.8939 35.9168 54.7467 35.7733 54.6113M26.3165 53.1589C26.5058 52.5278 27.6223 51.6002 28.8433 50.8678M32.0007 49.7484C31.8189 49.7029 31.5723 49.7194 31.2832 49.7844M26.3165 52.0221C26.3165 51.5118 26.1876 50.7524 25.9589 49.9811M23.6638 47.0956C24.0388 47.0206 24.3905 47.1914 24.7076 47.514M17.2217 48.6116C17.6864 48.4257 18.1779 48.368 18.6811 48.4105M14.948 74.0012C12.6743 72.4854 9.26372 69.8328 8.88477 60.738C9.24375 59.4616 9.73351 58.368 10.3218 57.4349M11.9162 53.1589C11.6362 53.719 11.3367 54.51 11.1147 55.4447M36.5481 54.6746C36.6158 55.216 36.6961 55.9404 36.7717 56.7517M8.88477 59.98C8.981 61.8084 9.50242 65.2936 10.8176 67.6543M36.9271 64.5274C36.6253 65.7346 36.0832 67.9511 35.8749 68.9569M17.7098 58.7108C16.6377 60.1993 15.7723 61.9238 15.3269 63.7695C15.1124 64.6586 14.9514 65.5446 14.8461 66.4125M17.7098 58.7108C19.9595 60.8751 23.6492 62.0854 26.4219 62.4305M17.7098 58.7108C16.5699 57.6142 15.7997 56.2727 15.7057 54.6746C15.6749 54.1508 15.6908 53.6617 15.7465 53.2054M17.7098 58.7108C18.7509 57.2654 19.987 56.0425 21.223 55.147M14.8461 66.4125C17.8426 68.9476 21.4639 70.1117 23.574 70.4669M14.8461 66.4125C14.0674 65.7537 13.3309 65.0023 12.6741 64.1485C10.8151 61.7317 10.5711 58.9065 10.8934 56.6165M14.8461 66.4125C14.6286 68.2052 14.6487 69.9207 14.925 71.4273M23.574 70.4669C24.0299 69.7833 24.4495 69.063 24.8007 68.3169C25.696 66.4149 26.1909 64.3951 26.4219 62.4305M23.574 70.4669C24.0793 70.5519 24.498 70.5906 24.8007 70.5906C26.678 70.5906 30.0433 70.2186 31.5794 69.4746M23.574 70.4669C22.5764 71.9625 21.405 73.2819 20.3956 74.3085M26.4219 62.4305C27.9078 62.6154 29.1304 62.5519 29.7269 62.2536C30.398 61.9181 31.2341 61.4505 32.0697 60.8801M26.4219 62.4305C26.6398 60.5772 26.6227 58.7731 26.4854 57.1635M30.3481 57.1557C31.0656 58.2415 31.6624 59.5213 32.0697 60.8801M30.3481 57.1557C31.5319 56.8907 32.3797 56.2912 32.3797 55.1699C32.3797 54.4278 32.2354 53.7798 31.9255 53.2074M30.3481 57.1557C29.2184 57.4086 27.7826 57.3569 26.4854 57.1635M32.0697 60.8801C34.0651 59.5179 36.0572 57.5694 35.7901 55.4325C35.7492 55.1055 35.6895 54.784 35.6152 54.4705M32.0697 60.8801C32.6847 62.9323 32.8673 65.1645 32.3797 67.1801C32.1847 67.9859 31.9132 68.7516 31.5794 69.4746M35.6152 54.4705C34.6649 53.6715 33.3018 53.3239 31.9255 53.2074M35.6152 54.4705C35.6693 54.516 35.722 54.5629 35.7733 54.6113M35.6152 54.4705C35.5977 54.3964 35.5793 54.3228 35.5601 54.2496M31.9255 53.2074C31.4031 52.2424 30.4098 51.4922 28.8433 50.8678M26.8924 75.0377C28.7826 73.6884 30.5042 71.8035 31.5794 69.4746M26.8924 75.0377C26.2151 75.1431 25.5158 75.1827 24.8007 75.138C23.1513 75.0349 21.6982 74.7355 20.3956 74.3085M26.8924 75.0377C26.2555 75.4924 25.5994 75.8862 24.9425 76.2158M26.8924 75.0377C30.2713 74.5121 33.1018 72.3515 34.6119 70.872M31.5794 69.4746C31.5937 69.4677 31.6078 69.4607 31.6218 69.4538C33.1376 68.6959 36.5481 66.0432 36.9271 63.3906C37.149 61.8368 36.9783 58.9695 36.7717 56.7517M20.3956 74.3085C19.9378 74.7741 19.5134 75.1794 19.1537 75.5137M20.3956 74.3085C18.2245 73.5967 16.4717 72.5303 14.925 71.4273M19.4968 52.5317C18.264 52.5827 16.9834 52.7862 15.7465 53.2054M19.4968 52.5317C19.4587 53.4858 20.1763 54.3928 21.223 55.147M19.4968 52.5317C19.5139 52.1046 19.6824 51.668 20.0406 51.2315C20.5925 50.5589 21.345 50.163 22.1583 49.9518M15.7465 53.2054C13.9407 53.8173 12.2281 54.8889 10.8934 56.6165M15.7465 53.2054C16.0405 50.7967 17.4432 49.302 18.9365 48.4403M21.223 55.147C22.3977 55.9934 23.9868 56.6475 25.3876 56.9601C25.7339 57.0374 26.1037 57.1066 26.4854 57.1635M18.6811 48.4105C15.3825 49.6988 12.6799 52.2289 11.1147 55.4447M18.6811 48.4105C18.7659 48.4176 18.8511 48.4276 18.9365 48.4403M18.6811 48.4105C19.0069 48.2832 19.3385 48.1681 19.6754 48.0656M11.1147 55.4447C11.0268 55.8146 10.9511 56.207 10.8934 56.6165M11.1147 55.4447C10.8042 56.0826 10.5385 56.7474 10.3218 57.4349M10.8934 56.6165C10.6941 56.8745 10.5033 57.147 10.3218 57.4349M18.9365 48.4403C19.1819 48.2987 19.4297 48.1742 19.6754 48.0656M18.9365 48.4403C20.0173 48.6012 21.1398 49.196 22.1583 49.9518M15.5942 73.6524C16.6777 74.4368 17.8742 75.0675 19.1537 75.5137M15.5942 73.6524C15.2954 72.9845 15.0733 72.236 14.925 71.4273M15.5942 73.6524C13.5145 72.1466 11.8514 70.0744 10.8176 67.6543M19.1537 75.5137C20.569 76.0072 22.086 76.2749 23.6638 76.2749C24.0949 76.2749 24.5214 76.2549 24.9425 76.2158M14.925 71.4273C13.9885 70.7594 13.1276 70.078 12.2953 69.4538C11.7177 69.0205 11.2289 68.3924 10.8176 67.6543M10.8176 67.6543C10.062 65.8852 9.64267 63.9303 9.64267 61.8748C9.64267 60.3255 9.88089 58.8334 10.3218 57.4349M31.2832 49.7844C29.3637 48.5058 27.1206 47.6963 24.7076 47.514M31.2832 49.7844C30.6076 49.9365 29.6997 50.3542 28.8433 50.8678M31.2832 49.7844C33.0071 50.9327 34.4699 52.4592 35.5601 54.2496M24.7076 47.514C25.2409 48.0563 25.6762 49.0279 25.9589 49.9811M24.7076 47.514C24.363 47.4879 24.0149 47.4747 23.6638 47.4747C22.2782 47.4747 20.9396 47.6811 19.6754 48.0656M25.9589 49.9811C26.2058 50.0361 26.4292 50.0965 26.6215 50.1574C27.4631 50.3772 28.2013 50.6119 28.8433 50.8678M25.9589 49.9811C24.9184 49.7492 23.4604 49.6137 22.1583 49.9518M19.6754 48.0656C20.4383 47.7283 21.1812 47.5437 21.7689 47.4746C23.1584 47.3483 26.3921 47.1714 28.2111 47.4746C30.03 47.7777 32.5059 49.3693 33.5164 50.1272C34.0427 50.7588 35.0601 52.3375 35.5601 54.2496M36.7717 56.7517C36.4955 56.0067 36.1607 55.2912 35.7733 54.6113M36.7717 56.7517C37.3618 58.3434 37.685 60.0703 37.685 61.8748C37.685 64.4491 37.0272 66.8657 35.8749 68.9569M35.7733 54.6113C35.7039 54.4896 35.6329 54.369 35.5601 54.2496M24.9425 76.2158C28.8486 75.8531 32.2925 73.8452 34.6119 70.872M34.6119 70.872C35.3655 70.1337 35.7902 69.565 35.7902 69.4538C35.7902 69.392 35.8216 69.214 35.8749 68.9569M34.6119 70.872C35.0807 70.2712 35.5035 69.6309 35.8749 68.9569" stroke="black"/>
<ellipse cx="44.8846" cy="67.9374" rx="15.537" ry="15.9159" fill="black"/>
<path d="M37.2316 55.8697C36.5795 56.3068 35.9651 56.7981 35.3943 57.3375C34.9569 58.0546 34.6589 58.8881 34.5825 59.7784C36.2052 58.8844 38.1145 58.5141 39.9746 58.4512C39.9822 58.3814 39.9925 58.3106 40.0057 58.2391C40.1575 57.414 40.7084 56.7278 41.4885 56.2061C40.1812 55.8109 38.7279 55.6357 37.2316 55.8697Z" fill="white"/>
<path d="M36.0983 64.0673C37.312 62.4908 38.8971 61.2776 40.6294 60.4594C40.1486 59.899 39.8901 59.2299 39.9746 58.4512C38.1145 58.5141 36.2052 58.8844 34.5825 59.7784C34.4651 61.1464 34.871 62.6484 36.0983 64.0673Z" fill="white"/>
<path d="M41.2002 66.572C41.7059 64.7621 42.4825 63.2571 43.2988 62.0735C42.2147 61.7105 41.2417 61.1732 40.6294 60.4594C38.8971 61.2776 37.312 62.4908 36.0983 64.0673C36.1215 64.0942 36.145 64.121 36.1688 64.1478C37.1675 65.2713 39.0298 66.0658 41.2002 66.572Z" fill="white"/>
<path d="M49.8801 67.184C49.521 65.411 48.8909 63.8113 48.2091 62.4885C47.3813 62.6439 46.49 62.6734 45.6088 62.5753C44.8402 62.4899 44.0433 62.3228 43.2988 62.0735C42.4825 63.2571 41.7059 64.7621 41.2002 66.572C43.9768 67.2195 47.2577 67.3952 49.8801 67.184Z" fill="#FF1E1E"/>
<path d="M40.7166 69.0741C40.5473 70.5978 40.5104 72.0647 40.5763 73.437C43.7042 74.2879 47.1568 74.405 49.9275 74.0815C50.1015 72.8955 50.1904 71.6066 50.1904 70.211C50.1904 69.1619 50.0752 68.1474 49.8801 67.184C47.2577 67.3952 43.9768 67.2195 41.2002 66.572C40.9828 67.3501 40.8155 68.1846 40.7166 69.0741Z" fill="#C71818"/>
<path d="M34.2749 67.5583C34.0791 68.1779 33.9354 68.8043 33.8417 69.4324C34.3084 69.9874 34.8312 70.5085 35.4113 70.9689C36.8546 72.114 38.6541 72.9141 40.5763 73.437C40.5104 72.0647 40.5473 70.5978 40.7166 69.0741C40.8155 68.1846 40.9828 67.3501 41.2002 66.572C39.0298 66.0658 37.1675 65.2713 36.1688 64.1478C36.145 64.121 36.1215 64.0942 36.0983 64.0673C35.3164 65.083 34.6886 66.2495 34.2749 67.5583Z" fill="#FF5353"/>
<path d="M34.5825 59.7784C33.682 60.2744 32.8699 60.9318 32.2033 61.7873C31.7877 62.6897 31.4607 63.6436 31.2339 64.6371C31.6965 66.1191 32.5566 67.9043 33.8417 69.4324C33.9354 68.8043 34.0791 68.1779 34.2749 67.5583C34.6886 66.2495 35.3164 65.083 36.0983 64.0673C34.871 62.6484 34.4651 61.1464 34.5825 59.7784Z" fill="#940000"/>
<path d="M44.5061 80.8216C45.5525 80.8797 46.4829 80.8754 47.318 80.8196C48.6293 79.1145 49.5161 76.8854 49.9275 74.0815C47.1568 74.405 43.7042 74.2879 40.5763 73.437C40.7139 76.3034 41.3001 78.7565 42.0653 80.4496C42.8726 80.6471 43.692 80.7763 44.5061 80.8216Z" fill="#FF4343"/>
<path d="M34.9748 76.7343C35.2339 76.9639 35.5056 77.19 35.7903 77.411C37.5008 78.7389 39.7324 79.879 42.0653 80.4496C41.3001 78.7565 40.7139 76.3034 40.5763 73.437C38.6541 72.9141 36.8546 72.114 35.4113 70.9689C34.8312 70.5085 34.3084 69.9874 33.8417 69.4324C33.4666 71.9465 33.8916 74.4891 34.9748 76.7343Z" fill="#9B0B0B"/>
<path d="M30.8639 67.9373C30.8639 69.6536 31.1563 71.2997 31.6926 72.8261C32.4332 74.0149 33.5009 75.4289 34.9748 76.7343C33.8916 74.4891 33.4666 71.9465 33.8417 69.4324C32.5566 67.9043 31.6965 66.1191 31.2339 64.6371C30.9919 65.6969 30.8639 66.8017 30.8639 67.9373Z" fill="#FF0000"/>
<path d="M55.8746 65.2846C55.8589 65.2563 55.8431 65.2282 55.8272 65.2001C55.2352 65.6259 54.4945 66.0242 53.6006 66.4215C52.7508 66.7991 51.4306 67.0592 49.8801 67.184C50.0752 68.1474 50.1904 69.1619 50.1904 70.211C50.1904 71.6066 50.1015 72.8955 49.9275 74.0815C51.3921 73.9105 52.6662 73.6164 53.6009 73.2426C55.3129 72.5578 56.5609 71.9503 57.4846 71.1756C57.4815 69.2182 56.9495 67.2172 55.8746 65.2846Z" fill="#FF1515"/>
<path d="M55.5881 77.2401C55.6859 77.1215 55.7819 77.0012 55.876 76.8794C56.9467 75.1007 57.4876 73.1605 57.4846 71.1756C56.5609 71.9503 55.3129 72.5578 53.6009 73.2426C52.6662 73.6164 51.3921 73.9105 49.9275 74.0815C49.5161 76.8854 48.6293 79.1145 47.318 80.8196C51.7285 80.5251 53.4773 78.7944 55.5881 77.2401Z" fill="#AE0000"/>
<path d="M48.2091 62.4885C48.8909 63.8113 49.521 65.411 49.8801 67.184C51.4306 67.0592 52.7508 66.7991 53.6006 66.4215C54.4945 66.0242 55.2352 65.6259 55.8272 65.2001C54.7239 63.2539 53.1513 61.7596 51.4156 60.7517C50.7204 61.6561 49.5478 62.2371 48.2091 62.4885Z" fill="#FF3131"/>
<path d="M57.6309 61.9282C57.3756 61.3581 57.0852 60.8081 56.7624 60.281C56.6638 60.1753 56.5604 60.066 56.4521 59.9532C55.5411 59.004 53.8333 58.5511 52.0731 58.4461C52.0888 58.6298 52.0893 58.8234 52.0735 59.0272C52.0219 59.6936 51.7868 60.2688 51.4156 60.7517C53.1513 61.7596 54.7239 63.2539 55.8272 65.2001C57.0644 64.3103 57.652 63.3003 57.6309 61.9282Z" fill="#880606"/>
<path d="M55.8272 65.2001C55.8431 65.2282 55.8589 65.2563 55.8746 65.2846C56.9495 67.2172 57.4815 69.2182 57.4846 71.1756C58.0338 70.7149 58.4684 70.1951 58.8177 69.5647C58.8762 69.0305 58.9062 68.4875 58.9062 67.9373C58.9062 65.7924 58.4497 63.7571 57.6309 61.9282C57.652 63.3003 57.0644 64.3103 55.8272 65.2001Z" fill="#FF7676"/>
<path d="M51.8052 55.4103C51.3535 55.5167 50.8529 55.7411 50.3412 56.0339C51.2979 56.5443 51.976 57.3061 52.0731 58.4461C53.8333 58.5511 55.5411 59.004 56.4521 59.9532C56.5604 60.066 56.6638 60.1753 56.7624 60.281C55.529 58.2671 53.8235 56.5889 51.8052 55.4103Z" fill="#D30000"/>
<path d="M44.5436 53.5413C44.9575 53.8885 45.2905 54.4309 45.5544 55.0547C45.8614 55.0486 46.168 55.0584 46.4705 55.0846C47.8255 55.2019 49.261 55.4576 50.3412 56.0339C50.8529 55.7411 51.3535 55.5167 51.8052 55.4103C49.7634 54.2181 47.4017 53.5372 44.8851 53.5372C44.7709 53.5372 44.6571 53.5386 44.5436 53.5413Z" fill="#FF0202"/>
<path d="M37.2316 55.8697C38.7279 55.6357 40.1812 55.8109 41.4885 56.2061C42.5586 55.4904 44.0602 55.0845 45.5544 55.0547C45.2905 54.4309 44.9575 53.8885 44.5436 53.5413C41.8493 53.6075 39.3433 54.4542 37.2316 55.8697Z" fill="#FF0F0F"/>
<path d="M40.0057 58.2391C39.9925 58.3106 39.9822 58.3814 39.9746 58.4512C42.2788 58.3733 44.5075 58.7671 46.0219 59.2214C47.7784 59.2214 49.6786 59.743 51.4156 60.7517C51.7868 60.2688 52.0219 59.6936 52.0735 59.0272C52.0893 58.8234 52.0888 58.6298 52.0731 58.4461C51.976 57.3061 51.2979 56.5443 50.3412 56.0339C49.261 55.4576 47.8255 55.2019 46.4705 55.0846C46.168 55.0584 45.8614 55.0486 45.5544 55.0547C44.0602 55.0845 42.5586 55.4904 41.4885 56.2061C40.7084 56.7278 40.1575 57.414 40.0057 58.2391Z" fill="#630000"/>
<path d="M46.0219 59.2214C44.5075 58.7671 42.2788 58.3733 39.9746 58.4512C39.8901 59.2299 40.1486 59.899 40.6294 60.4594C42.3547 59.6445 44.226 59.2214 46.0219 59.2214Z" fill="#FF1E1E"/>
<path d="M46.0219 59.2214C44.226 59.2214 42.3547 59.6445 40.6294 60.4594C41.2417 61.1732 42.2147 61.7105 43.2988 62.0735C44.2845 60.6445 45.328 59.6841 46.0219 59.2214Z" fill="#B40000"/>
<path d="M43.2988 62.0735C44.0433 62.3228 44.8402 62.4899 45.6088 62.5753C46.49 62.6734 47.3813 62.6439 48.2091 62.4885C47.4414 60.9991 46.608 59.8608 46.0219 59.2214C45.328 59.6841 44.2845 60.6445 43.2988 62.0735Z" fill="#FF4545"/>
<path d="M46.0219 59.2214C46.608 59.8608 47.4414 60.9991 48.2091 62.4885C49.5478 62.2371 50.7204 61.6561 51.4156 60.7517C49.6786 59.743 47.7784 59.2214 46.0219 59.2214Z" fill="#B60000"/>
<path d="M34.5825 59.7784C34.6589 58.8881 34.9569 58.0546 35.3943 57.3375C34.0704 58.5884 32.9815 60.0976 32.2033 61.7873C32.8699 60.9318 33.682 60.2744 34.5825 59.7784Z" fill="#FF0000"/>
<path d="M37.2277 80.0022C36.3062 79.0284 35.5483 77.923 34.9748 76.7343C33.5009 75.4289 32.4332 74.0149 31.6926 72.8261C32.7348 75.7918 34.698 78.3052 37.2277 80.0022Z" fill="#8B0000"/>
<path d="M43.1722 82.231C42.7836 81.8089 42.4066 81.2049 42.0653 80.4496C39.7324 79.879 37.5008 78.7389 35.7903 77.411C35.5056 77.19 35.2339 76.9639 34.9748 76.7343C35.5483 77.923 36.3062 79.0284 37.2277 80.0022C38.9773 81.1759 40.998 81.959 43.1722 82.231Z" fill="#ED3E3E"/>
<path d="M47.318 80.8196C46.4829 80.8754 45.5525 80.8797 44.5061 80.8216C43.692 80.7763 42.8726 80.6471 42.0653 80.4496C42.4066 81.2049 42.7836 81.8089 43.1722 82.231C43.7336 82.3012 44.3052 82.3374 44.8851 82.3374C45.2364 82.3374 45.5847 82.3241 45.9295 82.298C46.4347 81.8578 46.8981 81.3656 47.318 80.8196Z" fill="#C40101"/>
<path d="M55.5881 77.2401C53.4773 78.7944 51.7285 80.5251 47.318 80.8196C46.8981 81.3656 46.4347 81.8578 45.9295 82.298C49.796 82.0056 53.2267 80.1028 55.5881 77.2401Z" fill="#F52F2F"/>
<path d="M57.4846 71.1756C57.4876 73.1605 56.9467 75.1007 55.876 76.8794C57.4642 74.8231 58.5169 72.3107 58.8177 69.5647C58.4684 70.1951 58.0338 70.7149 57.4846 71.1756Z" fill="#C20B0B"/>
<path d="M46.0219 59.2214C44.5075 58.7671 42.2788 58.3733 39.9746 58.4512M46.0219 59.2214C44.226 59.2214 42.3547 59.6445 40.6294 60.4594M46.0219 59.2214C45.328 59.6841 44.2845 60.6445 43.2988 62.0735M46.0219 59.2214C46.608 59.8608 47.4414 60.9991 48.2091 62.4885M46.0219 59.2214C47.7784 59.2214 49.6786 59.743 51.4156 60.7517M43.7484 82.7163C43.5554 82.6005 43.3624 82.4375 43.1722 82.231M47.1588 82.7163C46.935 82.4925 51.89 81.4276 53.9799 79.3058C54.7318 78.5423 55.3644 77.7293 55.876 76.8794M47.1807 59.1107C48.2757 58.6154 50.2039 58.3346 52.0731 58.4461M58.9522 63.5959C58.7332 62.8178 58.3748 62.0094 56.7624 60.281M46.4009 58.8425C46.3304 57.8556 46.079 56.2946 45.5544 55.0547M43.7482 53.1582C44.0415 53.2071 44.3059 53.342 44.5436 53.5413M46.4009 59.2214C45.5367 58.2045 43.7267 56.8828 41.4885 56.2061M35.4113 56.3632C36.0206 56.1242 36.6296 55.9638 37.2316 55.8697M44.1272 83.0953L39.2008 81.9584L33.5167 77.411C31.622 75.2636 28.5146 69.4531 31.243 63.3899C31.5124 62.7913 31.8357 62.2591 32.2033 61.7873M46.7798 58.8424C47.5907 58.0316 49.0037 56.7992 50.3412 56.0339M52.843 55.4319C52.5502 55.3148 52.196 55.3183 51.8052 55.4103M37.3049 55.4319C36.5683 55.8583 35.8913 56.5227 35.3943 57.3375M55.1157 57.3267C55.8736 58.0846 56.9573 58.7274 57.3904 60.3583C57.5428 60.932 57.6235 61.4519 57.6309 61.9282M30.8639 63.0109C30.9222 63.4769 31.0449 64.0317 31.2339 64.6371M59.6642 67.1794C59.4523 68.1329 59.1812 68.9087 58.8177 69.5647M58.5273 73.6215C58.5273 74.0005 58.5273 75.1373 55.8746 77.0321C55.7782 77.1009 55.6828 77.1703 55.5881 77.2401M30.8639 71.3478C31.0748 71.7696 31.3484 72.2735 31.6926 72.8261M37.2316 55.8697C36.5795 56.3068 35.9651 56.7981 35.3943 57.3375M37.2316 55.8697C38.7279 55.6357 40.1812 55.8109 41.4885 56.2061M37.2316 55.8697C39.3433 54.4542 41.8493 53.6075 44.5436 53.5413M35.3943 57.3375C34.9569 58.0546 34.6589 58.8881 34.5825 59.7784M35.3943 57.3375C34.0704 58.5884 32.9815 60.0976 32.2033 61.7873M34.5825 59.7784C36.2052 58.8844 38.1145 58.5141 39.9746 58.4512M34.5825 59.7784C34.4651 61.1464 34.871 62.6484 36.0983 64.0673M34.5825 59.7784C33.682 60.2744 32.8699 60.9318 32.2033 61.7873M39.9746 58.4512C39.9822 58.3814 39.9925 58.3106 40.0057 58.2391C40.1575 57.414 40.7084 56.7278 41.4885 56.2061M39.9746 58.4512C39.8901 59.2299 40.1486 59.899 40.6294 60.4594M41.4885 56.2061C42.5586 55.4904 44.0602 55.0845 45.5544 55.0547M36.0983 64.0673C37.312 62.4908 38.8971 61.2776 40.6294 60.4594M36.0983 64.0673C36.1215 64.0942 36.145 64.121 36.1688 64.1478C37.1675 65.2713 39.0298 66.0658 41.2002 66.572M36.0983 64.0673C35.3164 65.083 34.6886 66.2495 34.2749 67.5583C34.0791 68.1779 33.9354 68.8043 33.8417 69.4324M40.6294 60.4594C41.2417 61.1732 42.2147 61.7105 43.2988 62.0735M41.2002 66.572C41.7059 64.7621 42.4825 63.2571 43.2988 62.0735M41.2002 66.572C40.9828 67.3501 40.8155 68.1846 40.7166 69.0741C40.5473 70.5978 40.5104 72.0647 40.5763 73.437M41.2002 66.572C43.9768 67.2195 47.2577 67.3952 49.8801 67.184M43.2988 62.0735C44.0433 62.3228 44.8402 62.4899 45.6088 62.5753C46.49 62.6734 47.3813 62.6439 48.2091 62.4885M49.8801 67.184C49.521 65.411 48.8909 63.8113 48.2091 62.4885M49.8801 67.184C51.4306 67.0592 52.7508 66.7991 53.6006 66.4215C54.4945 66.0242 55.2352 65.6259 55.8272 65.2001M49.8801 67.184C50.0752 68.1474 50.1904 69.1619 50.1904 70.211C50.1904 71.6066 50.1015 72.8955 49.9275 74.0815M48.2091 62.4885C49.5478 62.2371 50.7204 61.6561 51.4156 60.7517M40.5763 73.437C43.7042 74.2879 47.1568 74.405 49.9275 74.0815M40.5763 73.437C38.6541 72.9141 36.8546 72.114 35.4113 70.9689C34.8312 70.5085 34.3084 69.9874 33.8417 69.4324M40.5763 73.437C40.7139 76.3034 41.3001 78.7565 42.0653 80.4496M49.9275 74.0815C51.3921 73.9105 52.6662 73.6164 53.6009 73.2426C55.3129 72.5578 56.5609 71.9503 57.4846 71.1756M49.9275 74.0815C49.5161 76.8854 48.6293 79.1145 47.318 80.8196M33.8417 69.4324C32.5566 67.9043 31.6965 66.1191 31.2339 64.6371M33.8417 69.4324C33.4666 71.9465 33.8916 74.4891 34.9748 76.7343M32.2033 61.7873C31.7877 62.6897 31.4607 63.6436 31.2339 64.6371M31.2339 64.6371C30.9919 65.6969 30.8639 66.8017 30.8639 67.9373C30.8639 69.6536 31.1563 71.2997 31.6926 72.8261M47.318 80.8196C46.4829 80.8754 45.5525 80.8797 44.5061 80.8216C43.692 80.7763 42.8726 80.6471 42.0653 80.4496M47.318 80.8196C51.7285 80.5251 53.4773 78.7944 55.5881 77.2401M47.318 80.8196C46.8981 81.3656 46.4347 81.8578 45.9295 82.298M42.0653 80.4496C39.7324 79.879 37.5008 78.7389 35.7903 77.411C35.5056 77.19 35.2339 76.9639 34.9748 76.7343M42.0653 80.4496C42.4066 81.2049 42.7836 81.8089 43.1722 82.231M34.9748 76.7343C33.5009 75.4289 32.4332 74.0149 31.6926 72.8261M34.9748 76.7343C35.5483 77.923 36.3062 79.0284 37.2277 80.0022M31.6926 72.8261C32.7348 75.7918 34.698 78.3052 37.2277 80.0022M55.8272 65.2001C55.8431 65.2282 55.8589 65.2563 55.8746 65.2846C56.9495 67.2172 57.4815 69.2182 57.4846 71.1756M55.8272 65.2001C54.7239 63.2539 53.1513 61.7596 51.4156 60.7517M55.8272 65.2001C57.0644 64.3103 57.652 63.3003 57.6309 61.9282M57.4846 71.1756C57.4876 73.1605 56.9467 75.1007 55.876 76.8794M57.4846 71.1756C58.0338 70.7149 58.4684 70.1951 58.8177 69.5647M55.5881 77.2401C55.6859 77.1215 55.7819 77.0012 55.876 76.8794M55.5881 77.2401C53.2267 80.1028 49.796 82.0056 45.9295 82.298M55.876 76.8794C57.4642 74.8231 58.5169 72.3107 58.8177 69.5647M51.4156 60.7517C51.7868 60.2688 52.0219 59.6936 52.0735 59.0272C52.0893 58.8234 52.0888 58.6298 52.0731 58.4461M57.6309 61.9282C57.3756 61.3581 57.0852 60.8081 56.7624 60.281M57.6309 61.9282C58.4497 63.7571 58.9062 65.7924 58.9062 67.9373C58.9062 68.4875 58.8762 69.0305 58.8177 69.5647M56.7624 60.281C56.6638 60.1753 56.5604 60.066 56.4521 59.9532C55.5411 59.004 53.8333 58.5511 52.0731 58.4461M56.7624 60.281C55.529 58.2671 53.8235 56.5889 51.8052 55.4103M52.0731 58.4461C51.976 57.3061 51.2979 56.5443 50.3412 56.0339M51.8052 55.4103C51.3535 55.5167 50.8529 55.7411 50.3412 56.0339M51.8052 55.4103C49.7634 54.2181 47.4017 53.5372 44.8851 53.5372C44.7709 53.5372 44.6571 53.5386 44.5436 53.5413M50.3412 56.0339C49.261 55.4576 47.8255 55.2019 46.4705 55.0846C46.168 55.0584 45.8614 55.0486 45.5544 55.0547M44.5436 53.5413C44.9575 53.8885 45.2905 54.4309 45.5544 55.0547M37.2277 80.0022C37.9219 80.7359 38.709 81.3948 39.5798 81.9584C41.5441 83.2297 45.2641 83.3479 44.8851 83.0953C45.2508 82.8515 45.5991 82.5859 45.9295 82.298M37.2277 80.0022C38.9773 81.1759 40.998 81.959 43.1722 82.231M43.1722 82.231C43.7336 82.3012 44.3052 82.3374 44.8851 82.3374C45.2364 82.3374 45.5847 82.3241 45.9295 82.298" stroke="black"/>
<path d="M25.5586 53.5367C25.5586 53.5367 29.4024 34.4596 37.685 26.2523C39.4751 24.4785 43.1166 21.705 42.6113 22.084L44.885 24.7365C41.3464 24.9724 30.2304 36.7306 26.3165 53.9157C25.9375 53.9157 25.5586 53.5367 25.5586 53.5367Z" fill="black" stroke="black" stroke-miterlimit="11.4737"/>
<path d="M30.1055 6.15108C49.4097 15.9627 46.328 46.9071 46.2043 59.3603H47.0372C46.5788 58.1889 52.8144 28.7121 43.3687 13.3685C40.3289 8.43065 33.8178 2 33.8178 2C33.8178 2 31.4197 4.41471 30.1055 6.15108Z" fill="black"/>
<path d="M47.0372 59.3603H46.2043C46.328 46.9071 49.4097 15.9627 30.1055 6.15108C31.4197 4.41471 33.8178 2 33.8178 2C33.8178 2 40.3289 8.43065 43.3687 13.3685C52.8144 28.7121 46.5788 58.1889 47.0372 59.3603ZM47.0372 59.3603C45.9373 58.4636 45.2817 59.3603 47.0372 59.3603Z" stroke="black" stroke-miterlimit="11.4737"/>
<path d="M41.6814 21.3628C41.6814 21.3628 56.4874 18.688 62.7935 24.748C69.0997 30.808 73.9785 37.6346 73.9785 37.6346C73.9785 37.6346 62.0692 44.0297 54.4046 38.8067C46.74 33.5836 41.6814 21.3628 41.6814 21.3628Z" fill="black" stroke="black" stroke-miterlimit="11.4737"/>
<path d="M42.5974 21.6236C42.5974 21.6236 55.573 20.9297 61.9221 25.6033C68.2711 30.277 70.4794 35.318 72.735 37.6347C67.719 39.1345 57.6494 41.5116 53.1606 36.8535C48.6718 32.1955 42.5974 21.6236 42.5974 21.6236Z" fill="#0F6546" stroke="black" stroke-miterlimit="11.4737"/>
<path d="M43.6912 21.9102C40.0924 18.5759 30.8163 13.3092 22.5017 18.9166C12.1084 25.9259 14.08 26.5341 6.64026 30.0833C12.8709 33.0829 22.9396 33.0527 29.2835 32.1501C35.6274 31.2476 40.2057 23.0128 43.6912 21.9102Z" fill="black" stroke="black" stroke-miterlimit="11.4737"/>
<path d="M43.7486 21.3273C40.5585 18.3716 31.1007 14.3531 23.7301 19.3238C14.5168 25.5373 16.9502 29.5526 9.64349 30.0432C18.1207 31.0548 24.5175 31.586 29.7419 31.0548C34.9663 30.5236 40.6589 22.3048 43.7486 21.3273Z" fill="#0F6546" stroke="black" stroke-miterlimit="11.4737"/>
<path d="M70.2504 38.0256C70.2504 38.0256 60.6185 40.3687 57.2005 39.1966C53.7825 38.0246 51.8839 37.0976 49.7763 33.5834C47.6688 30.0692 43.4273 22.1339 43.4273 22.1339C43.4273 22.1339 53.0889 20.3992 56.8901 29.4342C60.6913 38.4691 70.2504 38.0256 70.2504 38.0256Z" fill="#00C57E" stroke="black"/>
<path d="M7.36795 30.0436C7.36795 30.0436 10.9083 31.5346 14.5687 30.8003C18.2291 30.0661 22.9051 27.3909 25.5577 24.3593C31.2412 17.159 41.8533 19.8109 41.8533 19.8109C41.8533 19.8109 29.347 12.6113 19.4941 22.4645C9.64117 32.3177 7.36795 30.0436 7.36795 30.0436Z" fill="#00C57E" stroke="black"/>
<path d="M63.9081 36.2982C61.3565 35.1479 61.6754 34.3817 57.5291 28.6303C56.1804 26.6848 54.9564 24.7684 53.0634 23.6454C50.4796 22.1126 47.9602 20.9617 45.7275 21.7283C47.6412 21.7283 50.3099 22.1847 53.0634 24.4123C54.1905 25.3241 56.2533 28.6303 56.2533 28.6303C56.2533 28.6303 59.9187 35.4989 63.9081 36.2982Z" fill="black" stroke="black" stroke-miterlimit="11.4737"/>
<path d="M17.2222 30.0419C19.8749 28.9051 21.714 27.1827 24.4223 25.1156C26.4383 23.5769 27.1579 22.1088 29.4286 20.9792C32.3553 19.5233 35.1726 19.0569 37.6855 19.606C35.5316 19.606 32.2802 19.8463 29.4286 21.5285C27.8502 22.4596 25.8382 24.5497 25.8382 24.5497C25.8382 24.5497 21.7696 29.284 17.2222 30.0419Z" fill="black" stroke="black" stroke-miterlimit="11.4737"/>
<path d="M30.4844 5.78946C31.3939 4.57682 33.137 3.01049 33.8949 2.37891C33.3897 3.38944 32.2275 5.4863 31.6212 5.78946C31.0149 6.09262 30.6107 5.91577 30.4844 5.78946Z" fill="white"/>
<path d="M32.7588 5.78937C33.0619 5.48621 33.8956 3.89462 34.2746 3.13672C34.4009 3.7683 34.502 5.10726 33.8956 5.41042C33.2893 5.71358 32.8851 5.78937 32.7588 5.78937Z" fill="white"/>
<path d="M26.3164 49.7477C27.0194 47.1019 28.689 41.8104 29.7434 39.8261C30.7979 37.8417 31.6766 36.4362 32.116 36.1055L32.3796 38.0898C32.3796 38.0898 30.1458 41.495 28.9526 43.7947C27.7783 46.0579 26.3164 49.7477 26.3164 49.7477Z" fill="white" stroke="black"/>
<path d="M46.7803 48.9265L48.2961 48.2305L47.3866 59.599H46.7803V48.9265Z" fill="white" stroke="black"/>
<path d="M34.2748 6.54688H31.2432C32.759 7.68373 36.3211 10.4122 38.4432 12.2311C40.2234 13.757 41.9502 17.345 42.9079 19.7294C42.742 19.1437 42.5218 18.314 42.2327 17.1575C41.3232 13.5196 36.5485 8.56794 34.2748 6.54688Z" fill="white"/>
<path d="M31.2432 6.54688C32.1526 6.54688 33.6432 6.54688 34.2748 6.54688M31.2432 6.54688C32.759 7.68373 36.3211 10.4122 38.4432 12.2311C40.2234 13.757 41.9502 17.345 42.9079 19.7294M31.2432 6.54688H34.2748M34.2748 6.54688C36.5485 8.56794 41.3232 13.5196 42.2327 17.1575C42.5218 18.314 42.742 19.1437 42.9079 19.7294M42.9079 19.7294C43.0919 20.1874 43.2474 20.601 43.3696 20.947C43.3696 21.1193 43.2638 20.986 42.9079 19.7294Z" stroke="black"/>
<path d="M28.5901 19.9744C28.5901 19.9744 25.9813 20.8337 24.1485 21.7414C21.9663 22.8221 17.9795 25.4948 17.9795 25.4948C17.9795 25.4948 22.6334 20.7005 24.4662 19.7928C26.299 18.8851 28.5901 19.9744 28.5901 19.9744Z" fill="white" stroke="black"/>
<path d="M27.832 18.688L29.9542 19.4318L33.1373 18.3161C31.8405 17.9442 28.9638 17.498 27.832 18.688Z" fill="white" stroke="black"/>
</g>
<path d="M90.04 66.76C91.336 66.568 92.632 65.968 93.928 64.96C95.272 63.952 96.496 62.68 97.6 61.144C98.704 59.56 99.664 57.808 100.48 55.888C101.344 53.968 101.944 52 102.28 49.984C102.664 47.968 102.76 46 102.568 44.08C102.424 42.16 101.896 40.432 100.984 38.896C100.312 37.696 99.424 36.712 98.32 35.944C97.264 35.128 96.256 34.312 95.296 33.496C94.384 32.632 93.664 31.648 93.136 30.544C92.608 29.392 92.56 27.856 92.992 25.936C93.184 25.024 93.544 24.16 94.072 23.344C94.6 22.528 95.248 21.832 96.016 21.256C96.832 20.632 97.768 20.152 98.824 19.816C99.88 19.48 101.032 19.336 102.28 19.384L134.968 19.456C133.96 20.656 133.144 21.736 132.52 22.696C131.944 23.608 131.488 24.52 131.152 25.432C130.864 26.296 130.672 27.208 130.576 28.168C130.48 29.128 130.432 30.208 130.432 31.408V66.76H134.536C135.784 66.76 136.408 67.576 136.408 69.208L136.336 82.312C136.336 82.936 136.288 83.32 136.192 83.464C136.096 83.656 135.952 83.752 135.76 83.752C135.232 83.752 134.776 83.656 134.392 83.464C134.056 83.272 133.72 82.96 133.384 82.528C133.048 82.096 132.688 81.544 132.304 80.872C131.968 80.248 131.56 79.456 131.08 78.496C130.312 77.296 129.64 76.168 129.064 75.112C128.536 74.104 127.936 73.216 127.264 72.448C126.592 71.728 125.776 71.152 124.816 70.72C123.904 70.288 122.728 70.048 121.288 70H100.984C99.544 70.048 98.392 70.288 97.528 70.72C96.664 71.152 95.92 71.752 95.296 72.52C94.672 73.288 94.072 74.176 93.496 75.184C92.968 76.192 92.344 77.296 91.624 78.496C90.568 80.368 89.632 81.712 88.816 82.528C88.048 83.344 87.136 83.752 86.08 83.752C85.888 83.752 85.744 83.656 85.648 83.464C85.552 83.32 85.504 82.936 85.504 82.312V69.208C85.504 67.576 86.128 66.76 87.376 66.76H90.04ZM114.16 32.344C113.488 32.2 112.648 32.128 111.64 32.128C110.632 32.08 109.6 32.152 108.544 32.344C107.536 32.488 106.552 32.728 105.592 33.064C104.68 33.4 103.96 33.856 103.432 34.432C102.952 35.008 102.76 35.704 102.856 36.52C102.952 37.336 103.504 38.296 104.512 39.4C106.384 41.464 107.944 43.72 109.192 46.168C110.488 48.568 111.208 50.992 111.352 53.44C111.496 55.888 110.92 58.264 109.624 60.568C108.376 62.872 106.144 64.936 102.928 66.76H118.696L118.84 40.48C118.84 37.984 118.504 36.04 117.832 34.648C117.16 33.208 115.936 32.44 114.16 32.344ZM150.432 70.432C149.04 70.48 147.744 70.24 146.544 69.712C145.344 69.184 144.312 68.464 143.448 67.552C142.584 66.592 141.888 65.488 141.36 64.24C140.88 62.944 140.64 61.576 140.64 60.136C140.688 58.408 140.784 56.752 140.928 55.168C141.12 53.584 141.312 52 141.504 50.416C141.696 48.832 141.864 47.2 142.008 45.52C142.2 43.792 142.32 41.944 142.368 39.976C142.416 38.152 142.344 36.28 142.152 34.36C142.008 32.392 141.744 30.52 141.36 28.744C141.024 26.92 140.52 25.24 139.848 23.704C139.224 22.168 138.456 20.896 137.544 19.888V19.744L151.368 19.672C152.664 19.672 153.672 20.08 154.392 20.896C155.16 21.712 155.712 22.72 156.048 23.92C156.432 25.12 156.648 26.416 156.696 27.808C156.792 29.152 156.84 30.4 156.84 31.552C156.744 34.336 156.48 37.072 156.048 39.76C155.616 42.448 155.136 45.04 154.608 47.536C154.08 49.984 153.576 52.312 153.096 54.52C152.616 56.68 152.376 58.624 152.376 60.352C152.328 61.792 152.4 62.848 152.592 63.52C152.784 64.144 153.144 64.456 153.672 64.456C154.392 64.456 155.088 63.736 155.76 62.296C156.432 60.856 156.984 58.984 157.416 56.68C157.512 56.152 157.632 55.36 157.776 54.304C157.968 53.2 158.184 51.976 158.424 50.632C158.664 49.24 158.904 47.8 159.144 46.312C159.432 44.776 159.696 43.288 159.936 41.848C160.176 40.36 160.368 39.016 160.512 37.816C160.704 36.568 160.872 35.584 161.016 34.864C161.928 29.488 163.392 25.528 165.408 22.984C167.472 20.44 169.872 19.144 172.608 19.096C173.904 19.096 175.128 19.36 176.28 19.888C177.432 20.368 178.44 21.04 179.304 21.904C180.168 22.768 180.816 23.8 181.248 25C181.728 26.2 181.944 27.472 181.896 28.816C181.896 30.544 181.728 32.248 181.392 33.928C181.104 35.56 180.768 37.216 180.384 38.896C180.048 40.576 179.712 42.304 179.376 44.08C179.088 45.856 178.92 47.728 178.872 49.696C178.824 51.52 178.944 53.416 179.232 55.384C179.52 57.304 179.928 59.176 180.456 61C180.984 62.776 181.608 64.432 182.328 65.968C183.096 67.504 183.96 68.752 184.92 69.712V69.856L171.096 70C168.792 70 167.136 69.136 166.128 67.408C165.12 65.68 164.664 63.016 164.76 59.416C164.808 56.2 165.288 53.416 166.2 51.064C167.112 48.664 168.12 46.504 169.224 44.584C170.376 42.664 171.408 40.864 172.32 39.184C173.232 37.504 173.688 35.752 173.688 33.928C173.736 32.488 173.424 31.288 172.752 30.328C172.08 29.368 171.264 28.888 170.304 28.888C167.568 28.888 165.312 34.528 163.536 45.808L161.16 60.496C160.68 63.616 159.456 66.064 157.488 67.84C155.52 69.568 153.168 70.432 150.432 70.432ZM185.699 69.856C186.563 68.224 187.187 66.208 187.571 63.808C188.003 61.36 188.219 58.264 188.219 54.52V35.08C188.219 31.336 188.003 28.264 187.571 25.864C187.187 23.416 186.563 21.376 185.699 19.744V19.6H202.475C204.491 19.6 205.499 20.992 205.499 23.776C205.499 25.456 205.163 26.992 204.491 28.384C203.819 29.728 202.955 30.976 201.899 32.128C200.891 33.28 199.787 34.36 198.587 35.368C197.435 36.376 196.331 37.384 195.275 38.392C194.267 39.352 193.427 40.384 192.755 41.488C192.083 42.544 191.747 43.696 191.747 44.944C191.747 45.904 192.083 46.744 192.755 47.464C193.427 48.136 194.243 48.472 195.203 48.472C196.883 48.472 198.563 47.656 200.243 46.024C201.923 44.392 203.435 42.28 204.779 39.688C206.123 37.048 207.203 34.12 208.019 30.904C208.883 27.64 209.315 24.424 209.315 21.256C209.315 20.152 209.771 19.6 210.683 19.6H223.211C223.787 19.6 224.243 19.792 224.579 20.176C224.963 20.56 224.819 21.424 224.147 22.768C222.083 26.8 219.443 30.712 216.227 34.504C213.011 38.296 209.387 41.992 205.355 45.592C204.395 46.408 204.059 47.056 204.347 47.536C204.635 48.016 205.331 48.04 206.435 47.608L209.891 46.24C211.283 45.712 212.579 45.64 213.779 46.024C215.027 46.408 215.987 47.224 216.659 48.472L220.691 56.032C222.995 60.352 224.771 63.568 226.019 65.68C227.315 67.792 228.251 69.184 228.827 69.856V70H216.083C214.259 70 212.723 69.544 211.475 68.632C210.275 67.72 209.195 66.352 208.235 64.528C207.419 63.04 206.579 61.504 205.715 59.92C204.851 58.336 203.987 56.92 203.123 55.672C202.259 54.376 201.395 53.32 200.531 52.504C199.715 51.688 198.923 51.28 198.155 51.28C197.483 51.28 196.931 51.688 196.499 52.504C196.067 53.32 195.851 54.304 195.851 55.456C195.851 57.136 196.499 58.792 197.795 60.424C199.139 62.056 201.227 64.096 204.059 66.544C205.163 67.504 205.643 68.32 205.499 68.992C205.355 69.664 204.779 70 203.771 70H185.699V69.856ZM240.731 34.432C240.731 35.296 240.971 36.184 241.451 37.096C241.979 38.008 242.699 38.872 243.611 39.688C244.523 40.456 245.555 41.2 246.707 41.92C247.907 42.592 249.203 43.144 250.595 43.576C251.507 43.912 252.131 44.32 252.467 44.8C252.851 45.28 252.995 45.784 252.899 46.312C252.851 46.84 252.587 47.392 252.107 47.968C251.675 48.544 251.147 49.072 250.523 49.552C249.611 50.224 248.675 50.944 247.715 51.712C246.803 52.48 246.035 53.32 245.411 54.232C244.835 55.096 244.499 56.008 244.403 56.968C244.307 57.928 244.643 58.936 245.411 59.992C246.419 61.384 247.475 62.008 248.579 61.864C249.683 61.72 250.715 61.216 251.675 60.352C252.683 59.44 253.499 58.336 254.123 57.04C254.795 55.744 255.179 54.664 255.275 53.8V36.376C255.275 34.552 254.915 33.04 254.195 31.84C253.475 30.592 252.563 29.656 251.459 29.032C250.403 28.408 249.251 28.072 248.003 28.024C246.755 27.928 245.579 28.12 244.475 28.6C243.419 29.08 242.531 29.824 241.811 30.832C241.091 31.792 240.731 32.992 240.731 34.432ZM268.523 58.552C268.427 63.064 269.987 66.232 273.203 68.056C273.539 68.392 273.707 68.8 273.707 69.28C273.707 69.76 273.419 70 272.843 70H251.171C250.595 70 250.331 69.784 250.379 69.352C250.475 68.92 250.691 68.536 251.027 68.2C252.563 67.288 253.691 66.016 254.411 64.384C255.131 62.704 255.467 60.76 255.419 58.552C254.747 60.28 253.859 61.912 252.755 63.448C251.651 64.984 250.427 66.328 249.083 67.48C247.787 68.584 246.371 69.472 244.835 70.144C243.347 70.816 241.883 71.152 240.443 71.152C238.907 71.152 237.467 70.888 236.123 70.36C234.827 69.88 233.699 69.208 232.739 68.344C231.779 67.432 231.011 66.376 230.435 65.176C229.859 63.928 229.571 62.608 229.571 61.216C229.571 59.632 229.979 58.192 230.795 56.896C231.611 55.6 232.667 54.448 233.963 53.44C235.307 52.432 236.819 51.568 238.499 50.848C240.227 50.128 241.979 49.528 243.755 49.048C245.387 48.616 246.779 48.232 247.931 47.896C249.131 47.512 249.731 47.056 249.731 46.528C249.731 46.336 249.371 46.12 248.651 45.88C247.931 45.592 247.019 45.28 245.915 44.944C244.859 44.56 243.683 44.104 242.387 43.576C241.091 43 239.843 42.304 238.643 41.488C237.491 40.672 236.459 39.688 235.547 38.536C234.635 37.336 234.059 35.944 233.819 34.36C233.531 32.536 233.603 30.736 234.035 28.96C234.515 27.184 235.403 25.6 236.699 24.208C237.995 22.768 239.699 21.616 241.811 20.752C243.971 19.888 246.563 19.456 249.587 19.456C255.875 19.456 260.603 21.304 263.771 25C266.987 28.648 268.571 33.904 268.523 40.768V58.552ZM330.239 19.6V19.744C329.663 21.28 329.159 23.272 328.727 25.72C328.295 28.12 327.935 30.808 327.647 33.784C327.359 36.712 327.167 39.808 327.071 43.072C327.023 46.336 327.095 49.576 327.287 52.792C327.479 55.96 327.815 59.032 328.295 62.008C328.775 64.936 329.423 67.552 330.239 69.856V70H313.247C313.247 67.504 313.559 65.272 314.183 63.304C314.855 61.288 315.575 59.464 316.343 57.832C317.111 56.2 317.807 54.76 318.431 53.512C319.103 52.216 319.439 51.064 319.439 50.056C319.439 49.672 319.319 49.384 319.079 49.192C318.839 49 318.527 48.976 318.143 49.12C316.655 49.648 314.927 50.032 312.959 50.272C310.991 50.512 308.951 50.584 306.839 50.488C304.775 50.392 302.711 50.128 300.647 49.696C298.631 49.264 296.807 48.64 295.175 47.824C293.543 46.96 292.223 45.928 291.215 44.728C290.255 43.528 289.775 42.088 289.775 40.408C289.775 39.352 290.135 38.296 290.855 37.24C291.575 36.136 292.559 35.08 293.807 34.072C295.055 33.016 296.519 32.032 298.199 31.12C299.879 30.16 301.655 29.248 303.527 28.384C304.151 28.048 304.223 27.712 303.743 27.376C303.263 27.04 302.567 26.872 301.655 26.872C300.935 26.872 300.263 26.92 299.639 27.016C299.015 27.112 298.367 27.256 297.695 27.448C297.071 27.592 296.375 27.784 295.607 28.024C294.839 28.216 293.951 28.408 292.943 28.6C291.743 28.936 291.143 28.72 291.143 27.952V20.248C291.143 20.056 291.335 19.888 291.719 19.744C292.103 19.6 292.583 19.504 293.159 19.456C293.783 19.36 294.455 19.288 295.175 19.24C295.895 19.192 296.615 19.168 297.335 19.168C300.743 19.168 303.479 19.696 305.543 20.752C307.655 21.808 308.711 23.176 308.711 24.856C308.711 26.008 308.279 27.136 307.415 28.24C306.599 29.344 305.735 30.496 304.823 31.696C303.911 32.896 303.167 34.216 302.591 35.656C302.015 37.048 301.991 38.608 302.519 40.336C303.143 42.352 304.271 43.864 305.903 44.872C307.535 45.88 309.263 46.432 311.087 46.528C313.487 46.672 315.311 46.36 316.559 45.592C317.807 44.824 318.503 43.744 318.647 42.352C318.791 41.248 318.575 39.952 317.999 38.464C317.423 36.976 316.775 35.296 316.055 33.424C315.335 31.552 314.663 29.464 314.039 27.16C313.463 24.856 313.199 22.336 313.247 19.6H330.239ZM344.278 70C342.598 70 341.086 69.76 339.742 69.28C338.398 68.8 337.246 68.152 336.286 67.336C335.326 66.472 334.582 65.464 334.054 64.312C333.526 63.112 333.262 61.816 333.262 60.424C333.262 57.064 334.798 54.088 337.87 51.496C340.942 48.856 345.598 46.504 351.838 44.44C352.27 44.296 352.582 44.104 352.774 43.864C352.966 43.576 353.014 43.312 352.918 43.072C352.87 42.832 352.654 42.64 352.27 42.496C351.934 42.352 351.454 42.304 350.83 42.352C349.534 42.448 347.83 42.952 345.718 43.864C343.654 44.728 341.47 45.808 339.166 47.104C337.294 48.208 335.95 48.52 335.134 48.04C334.366 47.512 333.982 46.24 333.982 44.224V35.08C333.982 31.336 333.766 28.264 333.334 25.864C332.95 23.416 332.326 21.376 331.462 19.744V19.6H366.382V32.2C366.382 33.352 365.806 33.736 364.654 33.352C363.406 32.92 362.134 32.512 360.838 32.128C359.542 31.744 358.27 31.408 357.022 31.12C355.822 30.784 354.67 30.544 353.566 30.4C352.51 30.208 351.622 30.112 350.902 30.112C349.366 30.112 348.118 30.472 347.158 31.192C346.198 31.864 345.718 32.8 345.718 34V36.448C345.718 37.6 345.982 38.392 346.51 38.824C347.038 39.208 347.686 39.424 348.454 39.472C349.27 39.52 350.158 39.472 351.118 39.328C352.078 39.184 352.99 39.112 353.854 39.112C355.246 39.112 356.374 39.424 357.238 40.048C358.102 40.672 358.534 41.512 358.534 42.568C358.534 43.528 358.198 44.344 357.526 45.016C356.854 45.688 355.702 46.384 354.07 47.104C350.566 48.592 348.094 49.816 346.654 50.776C345.262 51.736 344.566 52.696 344.566 53.656C344.566 54.184 344.758 54.664 345.142 55.096C345.574 55.48 346.126 55.84 346.798 56.176C347.518 56.464 348.31 56.704 349.174 56.896C350.038 57.04 350.926 57.112 351.838 57.112C354.142 57.112 356.374 56.872 358.534 56.392C360.694 55.864 362.71 55.12 364.582 54.16C365.206 53.824 365.662 53.704 365.95 53.8C366.238 53.848 366.382 54.208 366.382 54.88V70H344.278ZM367.598 69.856C368.462 68.224 369.086 66.208 369.47 63.808C369.902 61.36 370.118 58.264 370.118 54.52V35.08C370.118 31.336 369.902 28.264 369.47 25.864C369.086 23.416 368.462 21.376 367.598 19.744V19.6H389.558C392.006 19.6 394.238 19.96 396.254 20.68C398.318 21.4 400.094 22.408 401.582 23.704C403.118 25 404.294 26.584 405.11 28.456C405.974 30.28 406.406 32.32 406.406 34.576C406.406 37.408 405.926 40.072 404.966 42.568C404.054 45.016 402.782 47.152 401.15 48.976C399.566 50.8 397.67 52.24 395.462 53.296C393.302 54.352 390.974 54.88 388.478 54.88C386.99 54.88 385.502 54.592 384.014 54.016C382.574 53.392 381.278 52.504 380.126 51.352C379.022 50.2 378.158 48.784 377.534 47.104C376.91 45.424 376.694 43.504 376.886 41.344C377.03 39.952 377.51 39.376 378.326 39.616C380.87 40.432 383.558 41.056 386.39 41.488C389.27 41.92 391.91 42.016 394.31 41.776C396.71 41.536 398.678 40.912 400.214 39.904C401.798 38.896 402.59 37.384 402.59 35.368C402.59 33.736 401.798 32.464 400.214 31.552C398.678 30.592 396.686 30.112 394.238 30.112C391.118 30.112 388.286 30.424 385.742 31.048C383.246 31.672 381.086 32.56 379.262 33.712C377.486 34.816 376.094 36.136 375.086 37.672C374.126 39.208 373.646 40.888 373.646 42.712C373.646 46.792 374.654 50.848 376.67 54.88C378.686 58.864 381.782 63.04 385.958 67.408C386.39 67.888 386.606 68.44 386.606 69.064C386.654 69.688 386.27 70 385.454 70H367.598V69.856ZM420.356 70C418.676 70 417.164 69.76 415.82 69.28C414.476 68.8 413.324 68.152 412.364 67.336C411.404 66.472 410.66 65.464 410.132 64.312C409.604 63.112 409.34 61.816 409.34 60.424C409.34 57.064 410.876 54.088 413.948 51.496C417.02 48.856 421.676 46.504 427.916 44.44C428.348 44.296 428.66 44.104 428.852 43.864C429.044 43.576 429.092 43.312 428.996 43.072C428.948 42.832 428.732 42.64 428.348 42.496C428.012 42.352 427.532 42.304 426.908 42.352C425.612 42.448 423.908 42.952 421.796 43.864C419.732 44.728 417.548 45.808 415.244 47.104C413.372 48.208 412.028 48.52 411.212 48.04C410.444 47.512 410.06 46.24 410.06 44.224V35.08C410.06 31.336 409.844 28.264 409.412 25.864C409.028 23.416 408.404 21.376 407.54 19.744V19.6H442.46V32.2C442.46 33.352 441.884 33.736 440.732 33.352C439.484 32.92 438.212 32.512 436.916 32.128C435.62 31.744 434.348 31.408 433.1 31.12C431.9 30.784 430.748 30.544 429.644 30.4C428.588 30.208 427.7 30.112 426.98 30.112C425.444 30.112 424.196 30.472 423.236 31.192C422.276 31.864 421.796 32.8 421.796 34V36.448C421.796 37.6 422.06 38.392 422.588 38.824C423.116 39.208 423.764 39.424 424.532 39.472C425.348 39.52 426.236 39.472 427.196 39.328C428.156 39.184 429.068 39.112 429.932 39.112C431.324 39.112 432.452 39.424 433.316 40.048C434.18 40.672 434.612 41.512 434.612 42.568C434.612 43.528 434.276 44.344 433.604 45.016C432.932 45.688 431.78 46.384 430.148 47.104C426.644 48.592 424.172 49.816 422.732 50.776C421.34 51.736 420.644 52.696 420.644 53.656C420.644 54.184 420.836 54.664 421.22 55.096C421.652 55.48 422.204 55.84 422.876 56.176C423.596 56.464 424.388 56.704 425.252 56.896C426.116 57.04 427.004 57.112 427.916 57.112C430.22 57.112 432.452 56.872 434.612 56.392C436.772 55.864 438.788 55.12 440.66 54.16C441.284 53.824 441.74 53.704 442.028 53.8C442.316 53.848 442.46 54.208 442.46 54.88V70H420.356ZM443.316 70V69.856C444.372 68.368 445.236 66.28 445.908 63.592C446.58 60.904 447.084 57.928 447.42 54.664C447.756 51.4 447.924 47.992 447.924 44.44C447.924 40.888 447.756 37.504 447.42 34.288C447.084 31.072 446.604 28.192 445.98 25.648C445.356 23.056 444.588 21.088 443.676 19.744V19.6H462.036C462.42 22.336 462.468 24.76 462.18 26.872C461.892 28.936 461.412 30.832 460.74 32.56C460.068 34.24 459.3 35.8 458.436 37.24C457.572 38.68 456.756 40.096 455.988 41.488C455.22 42.88 454.548 44.32 453.972 45.808C453.396 47.248 453.108 48.856 453.108 50.632C453.06 53.8 453.852 56.176 455.484 57.76C457.164 59.296 459.972 60.04 463.908 59.992C467.844 60.04 470.628 59.296 472.26 57.76C473.94 56.176 474.756 53.8 474.708 50.632C474.66 48.856 474.348 47.248 473.772 45.808C473.244 44.32 472.596 42.88 471.828 41.488C471.06 40.096 470.244 38.68 469.38 37.24C468.516 35.8 467.748 34.24 467.076 32.56C466.404 30.832 465.924 28.936 465.636 26.872C465.348 24.76 465.396 22.336 465.78 19.6H484.14V19.744C482.796 21.664 481.596 24.136 480.54 27.16C479.532 30.184 478.836 33.616 478.452 37.456C478.356 38.608 478.26 39.952 478.164 41.488C478.068 43.024 478.044 44.632 478.092 46.312C478.188 47.992 478.38 49.648 478.668 51.28C478.956 52.864 479.436 54.304 480.108 55.6C480.828 56.896 481.764 57.952 482.916 58.768C484.116 59.536 485.604 59.92 487.38 59.92C491.316 59.968 494.1 59.224 495.732 57.688C497.412 56.104 498.228 53.728 498.18 50.56C498.132 48.784 497.82 47.176 497.244 45.736C496.716 44.248 496.068 42.808 495.3 41.416C494.532 40.024 493.716 38.608 492.852 37.168C491.988 35.728 491.22 34.168 490.548 32.488C489.876 30.76 489.396 28.864 489.108 26.8C488.82 24.688 488.868 22.264 489.252 19.528H507.612L507.396 19.672C506.484 20.968 505.716 22.912 505.092 25.504C504.468 28.096 503.988 31.024 503.652 34.288C503.316 37.504 503.148 40.912 503.148 44.512C503.148 48.064 503.316 51.496 503.652 54.808C503.988 58.072 504.492 61.048 505.164 63.736C505.836 66.424 506.7 68.512 507.756 70H443.316ZM512.536 59.128C512.536 57.304 512.992 55.672 513.904 54.232C514.864 52.792 516.064 51.52 517.504 50.416C518.944 49.312 520.528 48.376 522.256 47.608C523.984 46.792 525.664 46.12 527.296 45.592C528.928 45.016 530.392 44.56 531.688 44.224C532.984 43.888 533.92 43.648 534.496 43.504C534.928 43.36 535.24 43.168 535.432 42.928C535.624 42.64 535.672 42.376 535.576 42.136C535.528 41.896 535.336 41.704 535 41.56C534.664 41.416 534.16 41.368 533.488 41.416C531.04 41.608 528.424 42.136 525.64 43C522.904 43.816 520.24 44.848 517.648 46.096C515.632 46.96 514.264 47.2 513.544 46.816C512.824 46.432 512.464 45.232 512.464 43.216V30.472C512.464 27.88 512.152 25.792 511.528 24.208C510.952 22.576 509.944 21.112 508.504 19.816V19.6H526.72V19.816C525.28 21.112 524.248 22.576 523.624 24.208C523.048 25.792 522.76 27.88 522.76 30.472V37.6C522.76 38.752 523.12 39.4 523.84 39.544C524.56 39.64 525.424 39.568 526.432 39.328C531.712 38.176 535.552 37.936 537.952 38.608V30.472C537.952 27.88 537.64 25.792 537.016 24.208C536.44 22.576 535.432 21.112 533.992 19.816V19.6H552.928V19.816C551.488 21.112 550.456 22.576 549.832 24.208C549.256 25.792 548.968 27.88 548.968 30.472V59.128C548.968 61.72 549.256 63.832 549.832 65.464C550.456 67.048 551.488 68.488 552.928 69.784V70H534.064V69.784C535.504 68.488 536.512 67.048 537.088 65.464C537.712 63.832 538.024 61.72 538.024 59.128V45.736C537.496 45.976 536.92 46.192 536.296 46.384C534.28 47.008 532.432 47.704 530.752 48.472C529.12 49.24 527.704 50.104 526.504 51.064C525.304 52.024 524.368 53.128 523.696 54.376C523.072 55.624 522.76 57.04 522.76 58.624V59.128C522.76 61.72 523.048 63.832 523.624 65.464C524.248 67.048 525.28 68.488 526.72 69.784V70H508.576V69.784C510.016 68.488 511.024 67.048 511.6 65.464C512.224 63.832 512.536 61.72 512.536 59.128ZM564.942 70.432C563.406 70.432 561.966 70.12 560.622 69.496C559.278 68.872 558.102 68.008 557.094 66.904C556.134 65.8 555.366 64.528 554.79 63.088C554.214 61.6 553.926 59.992 553.926 58.264C553.926 55.384 554.43 52.72 555.438 50.272C556.446 47.776 557.958 45.568 559.974 43.648C560.214 43.408 560.454 43.312 560.694 43.36C560.934 43.36 561.198 43.408 561.486 43.504C562.302 43.792 563.19 44.176 564.15 44.656C565.11 45.136 566.07 45.688 567.03 46.312C568.038 46.888 568.974 47.488 569.838 48.112C570.75 48.736 571.518 49.336 572.142 49.912C572.766 50.536 572.742 51.088 572.07 51.568C570.63 52.432 569.598 53.416 568.974 54.52C568.35 55.624 568.038 56.68 568.038 57.688C568.038 58.648 568.326 59.464 568.902 60.136C569.478 60.808 570.27 61.144 571.278 61.144C572.91 61.144 574.278 60.448 575.382 59.056C576.534 57.616 577.11 55.864 577.11 53.8C577.11 51.208 576.294 48.88 574.662 46.816C573.03 44.704 570.63 43.096 567.462 41.992C565.398 41.32 563.67 40.648 562.278 39.976C560.886 39.256 559.758 38.488 558.894 37.672C558.03 36.856 557.406 35.944 557.022 34.936C556.686 33.88 556.518 32.704 556.518 31.408C556.518 29.68 556.926 28.096 557.742 26.656C558.558 25.216 559.71 23.968 561.198 22.912C562.734 21.856 564.582 21.04 566.742 20.464C568.902 19.888 571.302 19.6 573.942 19.6H595.902V19.744C595.038 21.376 594.39 23.416 593.958 25.864C593.574 28.264 593.382 31.336 593.382 35.08V54.52C593.382 58.264 593.574 61.36 593.958 63.808C594.39 66.208 595.038 68.224 595.902 69.856V70H578.046C577.23 70 576.822 69.688 576.822 69.064C576.87 68.44 577.11 67.888 577.542 67.408C581.718 63.04 584.814 58.864 586.83 54.88C588.846 50.848 589.854 46.792 589.854 42.712C589.854 40.888 589.35 39.208 588.342 37.672C587.382 36.136 585.99 34.816 584.166 33.712C582.39 32.56 580.23 31.672 577.686 31.048C575.19 30.424 572.382 30.112 569.262 30.112C567.198 30.112 565.47 30.496 564.078 31.264C562.686 31.984 561.99 32.896 561.99 34C561.99 35.584 563.118 36.808 565.374 37.672C567.678 38.536 570.774 38.968 574.662 38.968C576.918 38.968 578.814 39.088 580.35 39.328C581.934 39.52 583.182 39.856 584.094 40.336C585.054 40.768 585.726 41.368 586.11 42.136C586.542 42.904 586.758 43.816 586.758 44.872C586.758 46.072 586.422 47.536 585.75 49.264C585.126 50.992 584.262 52.792 583.158 54.664C582.054 56.536 580.782 58.432 579.342 60.352C577.902 62.224 576.366 63.904 574.734 65.392C573.102 66.88 571.446 68.104 569.766 69.064C568.086 69.976 566.478 70.432 564.942 70.432Z" fill="black"/>
<defs>
<filter id="filter0_d_4168_28" x="0.255859" y="1.29297" width="78.4521" height="90.5605" filterUnits="userSpaceOnUse" color-interpolation-filters="sRGB">
<feFlood flood-opacity="0" result="BackgroundImageFix"/>
<feColorMatrix in="SourceAlpha" type="matrix" values="0 0 0 0 0 0 0 0 0 0 0 0 0 0 0 0 0 0 127 0" result="hardAlpha"/>
<feOffset dy="4"/>
<feGaussianBlur stdDeviation="2"/>
<feComposite in2="hardAlpha" operator="out"/>
<feColorMatrix type="matrix" values="0 0 0 0 0 0 0 0 0 0 0 0 0 0 0 0 0 0 0.25 0"/>
<feBlend mode="normal" in2="BackgroundImageFix" result="effect1_dropShadow_4168_28"/>
<feBlend mode="normal" in="SourceGraphic" in2="effect1_dropShadow_4168_28" result="shape"/>
</filter>
</defs>
</svg>
