<svg width="111" height="131" viewBox="0 0 111 131" fill="none" xmlns="http://www.w3.org/2000/svg">
<g filter="url(#filter0_d_3784_415)">
<ellipse cx="31.2322" cy="89.92" rx="23.074" ry="23.6368" fill="black"/>
<path d="M43.051 101.175C45.3021 100.05 50.3671 96.1104 50.9299 92.171C51.2595 89.8635 51.0059 85.6052 50.6992 82.3116C50.2889 81.2051 49.7918 80.1426 49.2164 79.1328C49.1402 79.061 49.0619 78.9913 48.9816 78.9238C49.092 79.3893 49.1806 79.8668 49.2414 80.3525C49.638 83.5259 46.6795 86.4197 43.7162 88.4427C44.6296 91.4904 44.9007 94.8054 44.1765 97.7987C43.887 98.9955 43.4838 100.133 42.9881 101.206C43.0093 101.196 43.0303 101.186 43.051 101.175Z" fill="#E51717"/>
<path d="M22.3903 85.2211C20.798 87.4317 19.5129 89.9927 18.8514 92.7337C18.5328 94.0541 18.2937 95.3699 18.1374 96.6588C22.5874 100.424 27.9655 102.152 31.0992 102.68C31.7762 101.665 32.3994 100.595 32.9209 99.4871C34.2506 96.6625 34.9856 93.6628 35.3286 90.7451C31.2108 90.2326 25.7314 88.4353 22.3903 85.2211Z" fill="#E51717"/>
<path d="M41.1594 82.9115C42.225 84.524 43.1114 86.4247 43.7162 88.4427C46.6795 86.4197 49.638 83.5259 49.2414 80.3525C49.1806 79.8668 49.092 79.3893 48.9816 78.9238C47.5704 77.7371 45.546 77.221 43.5021 77.0479C43.9623 77.898 44.1765 78.8603 44.1765 79.9624C44.1765 81.6277 42.9175 82.518 41.1594 82.9115Z" fill="#E51717"/>
<path d="M32.9209 99.4871C32.3994 100.595 31.7762 101.665 31.0992 102.68C31.8497 102.806 32.4715 102.864 32.9209 102.864C35.7089 102.864 40.7068 102.311 42.9881 101.206C43.4838 100.133 43.887 98.9955 44.1765 97.7987C44.9007 94.8054 44.6296 91.4904 43.7162 88.4427C42.4753 89.2898 41.2335 89.9842 40.2369 90.4825C39.351 90.9255 37.5353 91.0198 35.3286 90.7451C34.9856 93.6628 34.2506 96.6625 32.9209 99.4871Z" fill="#B41212"/>
<path d="M22.3903 85.2211C25.7314 88.4353 31.2108 90.2326 35.3286 90.7451C35.6522 87.9929 35.6269 85.3136 35.4229 82.9231C34.856 82.8386 34.3069 82.7358 33.7925 82.621C31.7123 82.1568 29.3523 81.1854 27.6078 79.9284C25.7722 81.2583 23.9364 83.0745 22.3903 85.2211Z" fill="#FF2626"/>
<path d="M35.3286 90.7451C37.5353 91.0198 39.351 90.9255 40.2369 90.4825C41.2335 89.9842 42.4753 89.2898 43.7162 88.4427C43.1114 86.4247 42.225 84.524 41.1594 82.9115C39.4816 83.2871 37.3494 83.2103 35.4229 82.9231C35.6269 85.3136 35.6522 87.9929 35.3286 90.7451Z" fill="#8B0505"/>
<path d="M18.8514 92.7337C19.5129 89.9927 20.798 87.4317 22.3903 85.2211C20.6974 83.5925 19.5536 81.6002 19.414 79.2269C19.3682 78.449 19.3918 77.7226 19.4745 77.0449C16.7927 77.9537 14.2493 79.5451 12.2672 82.1108C11.7885 85.5116 12.1509 89.7074 14.9118 93.2965C15.8872 94.5645 16.981 95.6804 18.1374 96.6588C18.2937 95.3699 18.5328 94.0541 18.8514 92.7337Z" fill="#FF3636"/>
<path d="M31.0992 102.68C27.9655 102.152 22.5874 100.424 18.1374 96.6588C17.8144 99.3212 17.8443 101.869 18.2546 104.106C20.5515 105.744 23.1547 107.328 26.3789 108.385C27.8779 106.861 29.6177 104.901 31.0992 102.68Z" fill="#990000"/>
<path d="M32.9209 102.864C32.4715 102.864 31.8497 102.806 31.0992 102.68C29.6177 104.901 27.8779 106.861 26.3789 108.385C28.3134 109.019 30.4714 109.464 32.9209 109.617C33.983 109.684 35.0216 109.625 36.0274 109.468C38.8345 107.464 41.3912 104.665 42.9881 101.206C40.7068 102.311 35.7089 102.864 32.9209 102.864Z" fill="#FF3434"/>
<path d="M18.1374 96.6588C16.981 95.6804 15.8872 94.5645 14.9118 93.2965C12.1509 89.7074 11.7885 85.5116 12.2672 82.1108C11.9713 82.4939 11.6878 82.8987 11.4183 83.3262C10.7635 85.4031 10.4097 87.619 10.4097 89.9198C10.4097 92.9725 11.0325 95.8758 12.1547 98.503C12.7654 99.5991 13.4913 100.532 14.3492 101.175C15.5853 102.102 16.8638 103.114 18.2546 104.106C17.8443 101.869 17.8144 99.3212 18.1374 96.6588Z" fill="#FF1616"/>
<path d="M34.641 72.2565C34.2212 70.8409 33.5748 69.3981 32.7828 68.5926C32.271 68.5539 31.754 68.5342 31.2326 68.5342C29.1749 68.5342 27.1868 68.8407 25.3094 69.4118C24.9445 69.5732 24.5764 69.7581 24.212 69.9683C25.8171 70.2072 27.4842 71.0906 28.9968 72.213C30.9305 71.7109 33.0958 71.9121 34.641 72.2565Z" fill="#DB0707"/>
<path d="M42.5482 71.9645C39.6976 70.0656 36.3662 68.8634 32.7828 68.5926C33.5748 69.3981 34.2212 70.8409 34.641 72.2565C35.0077 72.3382 35.3395 72.428 35.625 72.5183C36.8749 72.8447 37.9713 73.1934 38.9247 73.5734C40.1966 72.8106 41.5449 72.1903 42.5482 71.9645Z" fill="#FF4141"/>
<path d="M43.5021 77.0479C45.546 77.221 47.5704 77.7371 48.9816 78.9238C48.9556 78.8138 48.9283 78.7044 48.8999 78.5957C47.2807 75.9368 45.1083 73.6697 42.5482 71.9645C41.5449 72.1903 40.1966 72.8106 38.9247 73.5734C41.2511 74.5007 42.7262 75.6148 43.5021 77.0479Z" fill="#7A1A1A"/>
<path d="M25.8518 74.1135C25.3198 74.7618 25.0695 75.4101 25.0442 76.0444C28.6797 75.894 32.0353 76.6367 34.0469 77.5385C33.2131 76.1488 31.2811 73.9082 28.9968 72.213C27.7889 72.5266 26.6714 73.1146 25.8518 74.1135Z" fill="#FF5C5C"/>
<path d="M25.0442 76.0444C24.9875 77.4614 26.0532 78.8083 27.6078 79.9284C29.9569 78.2264 32.3057 77.3208 34.0469 77.5385C32.0353 76.6367 28.6797 75.894 25.0442 76.0444Z" fill="#760E0E"/>
<path d="M44.1765 79.9624C44.1765 78.8603 43.9623 77.898 43.5021 77.0479C42.7262 75.6148 41.2511 74.5007 38.9247 73.5734C37.9713 73.1934 36.8749 72.8447 35.625 72.5183C35.3395 72.428 35.0077 72.3382 34.641 72.2565C33.0958 71.9121 30.9305 71.7109 28.9968 72.213C31.2811 73.9082 33.2131 76.1488 34.0469 77.5385C32.3057 77.3208 29.9569 78.2264 27.6078 79.9284C29.3523 81.1854 31.7123 82.1568 33.7925 82.621C34.3069 82.7358 34.856 82.8386 35.4229 82.9231C37.3494 83.2103 39.4816 83.2871 41.1594 82.9115C42.9175 82.518 44.1765 81.6277 44.1765 79.9624Z" fill="#9F0000"/>
<path d="M19.2484 107.411C20.8574 108.576 22.6344 109.512 24.5345 110.175C25.0688 109.679 25.6991 109.077 26.3789 108.385C23.1547 107.328 20.5515 105.744 18.2546 104.106C18.4748 105.307 18.8047 106.419 19.2484 107.411Z" fill="#FF4242"/>
<path d="M31.2326 111.305C31.8727 111.305 32.5061 111.276 33.1315 111.218C34.1072 110.728 35.0815 110.143 36.0274 109.468C35.0216 109.625 33.983 109.684 32.9209 109.617C30.4714 109.464 28.3134 109.019 26.3789 108.385C25.6991 109.077 25.0688 109.679 24.5345 110.175C26.6365 110.908 28.8894 111.305 31.2326 111.305Z" fill="#B70000"/>
<path d="M19.2484 107.411C18.8047 106.419 18.4748 105.307 18.2546 104.106C16.8638 103.114 15.5853 102.102 14.3492 101.175C13.4913 100.532 12.7654 99.5991 12.1547 98.503C13.6899 102.097 16.1598 105.175 19.2484 107.411Z" fill="#FF5858"/>
<path d="M47.4916 103.282C45.249 105.479 41.0454 108.688 36.0274 109.468C35.0815 110.143 34.1072 110.728 33.1315 111.218C38.9325 110.679 44.047 107.697 47.4916 103.282Z" fill="#FF2626"/>
<path d="M50.9299 92.171C50.3671 96.1104 45.3021 100.05 43.051 101.175C43.0303 101.186 43.0093 101.196 42.9881 101.206C41.3912 104.665 38.8345 107.464 36.0274 109.468C41.0454 108.688 45.249 105.479 47.4916 103.282C48.1878 102.389 48.8157 101.439 49.3673 100.438C51.0786 97.3319 52.0554 93.743 52.0554 89.9198C52.0554 87.2401 51.5755 84.6754 50.6992 82.3116C51.0059 85.6052 51.2595 89.8635 50.9299 92.171Z" fill="#B50000"/>
<path d="M19.414 79.2269C19.5536 81.6002 20.6974 83.5925 22.3903 85.2211C23.9364 83.0745 25.7722 81.2583 27.6078 79.9284C26.0532 78.8083 24.9875 77.4614 25.0442 76.0444C23.2133 76.1202 21.3115 76.4224 19.4745 77.0449C19.3918 77.7226 19.3682 78.449 19.414 79.2269Z" fill="white"/>
<path d="M23.8327 69.924C18.934 71.8372 14.9203 75.5947 12.5958 80.3705C12.4653 80.9199 12.3528 81.5026 12.2672 82.1108C14.2493 79.5451 16.7927 77.9537 19.4745 77.0449C19.9112 73.4678 21.9944 71.248 24.212 69.9683C24.0852 69.9495 23.9587 69.9346 23.8327 69.924Z" fill="#CA0000"/>
<path d="M19.4745 77.0449C21.3115 76.4224 23.2133 76.1202 25.0442 76.0444C25.0695 75.4101 25.3198 74.7618 25.8518 74.1135C26.6714 73.1146 27.7889 72.5266 28.9968 72.213C27.4842 71.0906 25.8171 70.2072 24.212 69.9683C21.9944 71.248 19.9112 73.4678 19.4745 77.0449Z" fill="white"/>
<path d="M34.0469 77.5385C32.3057 77.3208 29.9569 78.2264 27.6078 79.9284M34.0469 77.5385C32.0353 76.6367 28.6797 75.894 25.0442 76.0444M34.0469 77.5385C33.2131 76.1488 31.2811 73.9082 28.9968 72.213M21.1024 110.18C20.3465 109.424 19.7303 108.488 19.2484 107.411M34.6093 77.5387C34.9405 79.0292 35.2476 80.8696 35.4229 82.9231M23.9165 110.743C24.1033 110.573 24.3105 110.383 24.5345 110.175M35.1721 78.1015C37.3457 78.5362 39.4761 80.3642 41.1594 82.9115M30.107 112.431C31.0961 112.134 32.1145 111.728 33.1315 111.218M35.7348 77.5387C36.0709 77.5387 39.8183 76.7361 43.5021 77.0479M52.6182 91.6083C52.8058 89.1696 52.5057 83.3917 49.8043 79.7899C49.6263 79.5526 49.4295 79.334 49.2164 79.1328M35.1721 76.9759C35.4532 76.0386 37.1113 74.6611 38.9247 73.5734M43.6138 71.9109C43.3437 71.8434 42.9776 71.8678 42.5482 71.9645M35.1721 75.2876C35.1721 74.5297 34.9807 73.402 34.641 72.2565M31.2326 67.9713C31.7894 67.8599 32.3118 68.1136 32.7828 68.5926M21.6654 70.2226C22.3556 69.9466 23.0854 69.8609 23.8327 69.924M18.2887 107.929C14.912 105.678 9.84696 101.738 9.28418 88.2316C9.81732 86.336 10.5447 84.7119 11.4183 83.3262M13.7862 76.9759C13.3703 77.8077 12.9256 78.9823 12.5958 80.3705M50.3671 79.2269C50.4676 80.0309 50.5869 81.1067 50.6992 82.3116M9.28418 87.1059C9.42709 89.8213 10.2015 94.9971 12.1547 98.503M50.9299 93.8593C50.4817 95.652 49.6766 98.9439 49.3673 100.438M22.3903 85.2211C20.798 87.4317 19.5129 89.9927 18.8514 92.7337C18.5328 94.0541 18.2937 95.3699 18.1374 96.6588M22.3903 85.2211C25.7314 88.4353 31.2108 90.2326 35.3286 90.7451M22.3903 85.2211C20.6974 83.5925 19.5536 81.6002 19.414 79.2269C19.3682 78.449 19.3918 77.7226 19.4745 77.0449M22.3903 85.2211C23.9364 83.0745 25.7722 81.2583 27.6078 79.9284M18.1374 96.6588C22.5874 100.424 27.9655 102.152 31.0992 102.68M18.1374 96.6588C16.981 95.6804 15.8872 94.5645 14.9118 93.2965C12.1509 89.7074 11.7885 85.5116 12.2672 82.1108M18.1374 96.6588C17.8144 99.3212 17.8443 101.869 18.2546 104.106M31.0992 102.68C31.7762 101.665 32.3994 100.595 32.9209 99.4871C34.2506 96.6625 34.9856 93.6628 35.3286 90.7451M31.0992 102.68C31.8497 102.806 32.4715 102.864 32.9209 102.864C35.7089 102.864 40.7068 102.311 42.9881 101.206M31.0992 102.68C29.6177 104.901 27.8779 106.861 26.3789 108.385M35.3286 90.7451C37.5353 91.0198 39.351 90.9255 40.2369 90.4825C41.2335 89.9842 42.4753 89.2898 43.7162 88.4427M35.3286 90.7451C35.6522 87.9929 35.6269 85.3136 35.4229 82.9231M41.1594 82.9115C42.225 84.524 43.1114 86.4247 43.7162 88.4427M41.1594 82.9115C42.9175 82.518 44.1765 81.6277 44.1765 79.9624C44.1765 78.8603 43.9623 77.898 43.5021 77.0479M41.1594 82.9115C39.4816 83.2871 37.3494 83.2103 35.4229 82.9231M43.7162 88.4427C46.6795 86.4197 49.638 83.5259 49.2414 80.3525C49.1806 79.8668 49.092 79.3893 48.9816 78.9238M43.7162 88.4427C44.6296 91.4904 44.9007 94.8054 44.1765 97.7987C43.887 98.9955 43.4838 100.133 42.9881 101.206M48.9816 78.9238C47.5704 77.7371 45.546 77.221 43.5021 77.0479M48.9816 78.9238C49.0619 78.9913 49.1402 79.061 49.2164 79.1328M48.9816 78.9238C48.9556 78.8138 48.9283 78.7044 48.8999 78.5957M43.5021 77.0479C42.7262 75.6148 41.2511 74.5007 38.9247 73.5734M36.0274 109.468C38.8345 107.464 41.3912 104.665 42.9881 101.206M36.0274 109.468C35.0216 109.625 33.983 109.684 32.9209 109.617C30.4714 109.464 28.3134 109.019 26.3789 108.385M36.0274 109.468C35.0815 110.143 34.1072 110.728 33.1315 111.218M36.0274 109.468C41.0454 108.688 45.249 105.479 47.4916 103.282M42.9881 101.206C43.0093 101.196 43.0302 101.186 43.051 101.175C45.3021 100.05 50.3671 96.1104 50.9299 92.171C51.2595 89.8635 51.0059 85.6052 50.6992 82.3116M26.3789 108.385C25.6991 109.077 25.0688 109.679 24.5345 110.175M26.3789 108.385C23.1547 107.328 20.5515 105.744 18.2546 104.106M25.0442 76.0444C23.2133 76.1202 21.3115 76.4224 19.4745 77.0449M25.0442 76.0444C24.9875 77.4614 26.0532 78.8083 27.6078 79.9284M25.0442 76.0444C25.0695 75.4101 25.3198 74.7618 25.8518 74.1135C26.6714 73.1146 27.7889 72.5266 28.9968 72.213M19.4745 77.0449C16.7927 77.9537 14.2493 79.5451 12.2672 82.1108M19.4745 77.0449C19.9112 73.4678 21.9944 71.248 24.212 69.9683M27.6078 79.9284C29.3523 81.1854 31.7123 82.1568 33.7925 82.621C34.3069 82.7358 34.856 82.8386 35.4229 82.9231M23.8327 69.924C18.934 71.8372 14.9203 75.5947 12.5958 80.3705M23.8327 69.924C23.9587 69.9346 24.0852 69.9495 24.212 69.9683M23.8327 69.924C24.3166 69.735 24.8091 69.564 25.3094 69.4118M12.5958 80.3705C12.4653 80.9198 12.3528 81.5026 12.2672 82.1108M12.5958 80.3705C12.1348 81.3178 11.7401 82.3052 11.4183 83.3262M12.2672 82.1108C11.9713 82.4939 11.6878 82.8987 11.4183 83.3262M24.212 69.9683C24.5764 69.7581 24.9445 69.5732 25.3094 69.4118M24.212 69.9683C25.8171 70.2072 27.4842 71.0906 28.9968 72.213M19.2484 107.411C20.8574 108.576 22.6344 109.512 24.5345 110.175M19.2484 107.411C18.8047 106.419 18.4748 105.307 18.2546 104.106M19.2484 107.411C16.1598 105.175 13.6899 102.097 12.1547 98.503M24.5345 110.175C26.6365 110.908 28.8894 111.305 31.2326 111.305C31.8727 111.305 32.5061 111.276 33.1315 111.218M18.2546 104.106C16.8638 103.114 15.5853 102.102 14.3492 101.175C13.4913 100.532 12.7654 99.5991 12.1547 98.503M12.1547 98.503C11.0325 95.8758 10.4097 92.9725 10.4097 89.9198C10.4097 87.619 10.7635 85.4031 11.4183 83.3262M42.5482 71.9645C39.6976 70.0656 36.3662 68.8634 32.7828 68.5926M42.5482 71.9645C41.5449 72.1903 40.1966 72.8106 38.9247 73.5734M42.5482 71.9645C45.1083 73.6697 47.2807 75.9368 48.8999 78.5957M32.7828 68.5926C33.5748 69.3981 34.2212 70.8409 34.641 72.2565M32.7828 68.5926C32.271 68.5539 31.754 68.5342 31.2326 68.5342C29.1749 68.5342 27.1868 68.8407 25.3094 69.4118M34.641 72.2565C35.0077 72.3382 35.3395 72.428 35.625 72.5183C36.8749 72.8447 37.9713 73.1934 38.9247 73.5734M34.641 72.2565C33.0958 71.9121 30.9305 71.7109 28.9968 72.213M25.3094 69.4118C26.4424 68.9109 27.5456 68.6368 28.4184 68.5341C30.482 68.3465 35.2844 68.0839 37.9858 68.5341C40.6871 68.9843 44.3639 71.348 45.8647 72.4736C46.6462 73.4114 48.1572 75.7561 48.8999 78.5957M50.6992 82.3116C50.2889 81.2051 49.7918 80.1426 49.2164 79.1328M50.6992 82.3116C51.5755 84.6754 52.0554 87.2401 52.0554 89.9198C52.0554 93.743 51.0786 97.3319 49.3673 100.438M49.2164 79.1328C49.1134 78.9521 49.0078 78.773 48.8999 78.5957M33.1315 111.218C38.9325 110.679 44.047 107.697 47.4916 103.282M47.4916 103.282C48.6108 102.185 49.2415 101.341 49.2415 101.175C49.2415 101.084 49.2882 100.819 49.3673 100.438M47.4916 103.282C48.1878 102.389 48.8157 101.439 49.3673 100.438" stroke="black"/>
<ellipse cx="62.7478" cy="98.9239" rx="23.074" ry="23.6368" fill="black"/>
<path d="M51.3823 81.0014C50.414 81.6506 49.5014 82.3803 48.6537 83.1813C48.0041 84.2462 47.5616 85.4841 47.4481 86.8062C49.858 85.4786 52.6936 84.9286 55.4559 84.8352C55.4672 84.7315 55.4825 84.6265 55.5021 84.5202C55.7276 83.2949 56.5458 82.2758 57.7042 81.5011C55.7628 80.9142 53.6045 80.6539 51.3823 81.0014Z" fill="white"/>
<path d="M49.6993 93.1758C51.5017 90.8345 53.8557 89.0328 56.4283 87.8176C55.7143 86.9854 55.3305 85.9918 55.4559 84.8352C52.6936 84.9286 49.858 85.4786 47.4481 86.8062C47.2738 88.8379 47.8766 91.0685 49.6993 93.1758Z" fill="white"/>
<path d="M57.2761 96.8954C58.0271 94.2075 59.1805 91.9725 60.3928 90.2148C58.7827 89.6757 57.3378 88.8776 56.4283 87.8176C53.8557 89.0328 51.5017 90.8345 49.6993 93.1758C49.7337 93.2157 49.7686 93.2555 49.804 93.2952C51.2871 94.9638 54.0528 96.1437 57.2761 96.8954Z" fill="white"/>
<path d="M70.1667 97.8044C69.6333 95.1713 68.6976 92.7955 67.685 90.831C66.4557 91.0619 65.132 91.1056 63.8233 90.96C62.6819 90.8331 61.4984 90.585 60.3928 90.2148C59.1805 91.9725 58.0271 94.2075 57.2761 96.8954C61.3996 97.8571 66.2721 98.118 70.1667 97.8044Z" fill="#FF1E1E"/>
<path d="M56.558 100.611C56.3065 102.874 56.2517 105.053 56.3495 107.091C60.9947 108.354 66.1223 108.528 70.237 108.048C70.4954 106.286 70.6275 104.372 70.6275 102.3C70.6275 100.742 70.4565 99.2351 70.1667 97.8044C66.2721 98.118 61.3996 97.8571 57.2761 96.8954C56.9532 98.051 56.7047 99.2903 56.558 100.611Z" fill="#C71818"/>
<path d="M46.9914 98.3602C46.7005 99.2803 46.4872 100.211 46.348 101.144C47.0411 101.968 47.8175 102.742 48.679 103.425C50.8224 105.126 53.4949 106.314 56.3495 107.091C56.2517 105.053 56.3065 102.874 56.558 100.611C56.7047 99.2903 56.9532 98.051 57.2761 96.8954C54.0528 96.1437 51.2871 94.9638 49.804 93.2952C49.7686 93.2555 49.7337 93.2157 49.6993 93.1758C48.5381 94.6842 47.6058 96.4165 46.9914 98.3602Z" fill="#FF5353"/>
<path d="M47.4481 86.8062C46.1109 87.5429 44.9047 88.5191 43.9148 89.7897C43.2976 91.1299 42.8119 92.5465 42.4751 94.0219C43.1622 96.2228 44.4395 98.874 46.348 101.144C46.4872 100.211 46.7005 99.2803 46.9914 98.3602C47.6058 96.4165 48.5381 94.6842 49.6993 93.1758C47.8766 91.0685 47.2738 88.8379 47.4481 86.8062Z" fill="#940000"/>
<path d="M62.1858 118.058C63.7397 118.144 65.1215 118.138 66.3616 118.055C68.3091 115.522 69.6261 112.212 70.237 108.048C66.1223 108.528 60.9947 108.354 56.3495 107.091C56.5539 111.348 57.4244 114.991 58.5608 117.505C59.7597 117.798 60.9766 117.99 62.1858 118.058Z" fill="#FF4343"/>
<path d="M48.0307 111.988C48.4156 112.328 48.819 112.664 49.2418 112.993C51.7821 114.965 55.0962 116.658 58.5608 117.505C57.4244 114.991 56.5539 111.348 56.3495 107.091C53.4949 106.314 50.8224 105.126 48.679 103.425C47.8175 102.742 47.0411 101.968 46.348 101.144C45.7909 104.877 46.422 108.653 48.0307 111.988Z" fill="#9B0B0B"/>
<path d="M41.9257 98.923C41.9257 101.472 42.3599 103.917 43.1564 106.183C44.2563 107.949 45.8418 110.049 48.0307 111.988C46.422 108.653 45.7909 104.877 46.348 101.144C44.4395 98.874 43.1622 96.2228 42.4751 94.0219C42.1157 95.5958 41.9257 97.2366 41.9257 98.923Z" fill="#FF0000"/>
<path d="M79.0692 94.9836C79.0458 94.9416 79.0223 94.8998 78.9987 94.8581C78.1195 95.4904 77.0195 96.0819 75.6919 96.6719C74.4299 97.2328 72.4692 97.619 70.1667 97.8044C70.4565 99.2351 70.6275 100.742 70.6275 102.3C70.6275 104.372 70.4954 106.286 70.237 108.048C72.4122 107.794 74.3043 107.357 75.6925 106.802C78.235 105.785 80.0883 104.883 81.46 103.732C81.4556 100.825 80.6654 97.8536 79.0692 94.9836Z" fill="#FF1515"/>
<path d="M78.6436 112.739C78.7888 112.563 78.9314 112.384 79.0712 112.203C80.6612 109.561 81.4646 106.68 81.46 103.732C80.0883 104.883 78.235 105.785 75.6925 106.802C74.3043 107.357 72.4122 107.794 70.237 108.048C69.6261 112.212 68.3091 115.522 66.3616 118.055C72.9117 117.617 75.5089 115.047 78.6436 112.739Z" fill="#AE0000"/>
<path d="M67.685 90.831C68.6976 92.7955 69.6333 95.1713 70.1667 97.8044C72.4692 97.619 74.4299 97.2328 75.6919 96.6719C77.0195 96.0819 78.1195 95.4904 78.9987 94.8581C77.3602 91.9677 75.0246 89.7485 72.447 88.2517C71.4146 89.5949 69.6731 90.4577 67.685 90.831Z" fill="#FF3131"/>
<path d="M81.6773 89.999C81.2983 89.1523 80.867 88.3355 80.3876 87.5528C80.2411 87.3957 80.0875 87.2334 79.9267 87.0658C78.5739 85.6562 76.0375 84.9836 73.4235 84.8277C73.4468 85.1005 73.4476 85.3879 73.4241 85.6907C73.3474 86.6804 72.9983 87.5345 72.447 88.2517C75.0246 89.7485 77.3602 91.9677 78.9987 94.8581C80.8361 93.5366 81.7088 92.0367 81.6773 89.999Z" fill="#880606"/>
<path d="M78.9987 94.8581C79.0223 94.8998 79.0458 94.9416 79.0692 94.9836C80.6654 97.8536 81.4556 100.825 81.46 103.732C82.2757 103.048 82.9211 102.276 83.4399 101.34C83.5268 100.547 83.5714 99.7402 83.5714 98.923C83.5714 95.7377 82.8933 92.715 81.6773 89.999C81.7088 92.0367 80.8361 93.5366 78.9987 94.8581Z" fill="#FF7676"/>
<path d="M73.0256 80.3193C72.3549 80.4772 71.6114 80.8105 70.8515 81.2453C72.2722 82.0033 73.2793 83.1347 73.4235 84.8277C76.0375 84.9836 78.5739 85.6562 79.9267 87.0658C80.0875 87.2334 80.2411 87.3957 80.3876 87.5528C78.5559 84.5618 76.0229 82.0695 73.0256 80.3193Z" fill="#D30000"/>
<path d="M62.2414 77.5436C62.8561 78.0591 63.3507 78.8647 63.7426 79.7911C64.1984 79.782 64.6538 79.7965 65.103 79.8354C67.1154 80.0097 69.2471 80.3894 70.8515 81.2453C71.6114 80.8105 72.3549 80.4772 73.0256 80.3193C69.9934 78.5486 66.4859 77.5374 62.7485 77.5374C62.579 77.5374 62.41 77.5395 62.2414 77.5436Z" fill="#FF0202"/>
<path d="M51.3823 81.0014C53.6045 80.6539 55.7628 80.9142 57.7042 81.5011C59.2935 80.4382 61.5235 79.8354 63.7426 79.7911C63.3507 78.8647 62.8561 78.0591 62.2414 77.5436C58.2401 77.6418 54.5184 78.8993 51.3823 81.0014Z" fill="#FF0F0F"/>
<path d="M55.5021 84.5202C55.4825 84.6265 55.4672 84.7315 55.4559 84.8352C58.878 84.7195 62.1877 85.3043 64.4369 85.9791C67.0454 85.9791 69.8674 86.7537 72.447 88.2517C72.9983 87.5345 73.3474 86.6804 73.4241 85.6907C73.4476 85.3879 73.4468 85.1005 73.4235 84.8277C73.2793 83.1347 72.2722 82.0033 70.8515 81.2453C69.2471 80.3894 67.1154 80.0097 65.103 79.8354C64.6538 79.7965 64.1984 79.782 63.7426 79.7911C61.5235 79.8354 59.2935 80.4382 57.7042 81.5011C56.5458 82.2758 55.7276 83.2949 55.5021 84.5202Z" fill="#630000"/>
<path d="M64.4369 85.9791C62.1877 85.3043 58.878 84.7195 55.4559 84.8352C55.3305 85.9918 55.7143 86.9854 56.4283 87.8176C58.9906 86.6074 61.7698 85.9791 64.4369 85.9791Z" fill="#FF1E1E"/>
<path d="M64.4369 85.9791C61.7698 85.9791 58.9906 86.6074 56.4283 87.8176C57.3378 88.8776 58.7827 89.6757 60.3928 90.2148C61.8566 88.0925 63.4063 86.6662 64.4369 85.9791Z" fill="#B40000"/>
<path d="M60.3928 90.2148C61.4984 90.585 62.6819 90.8331 63.8233 90.96C65.132 91.1056 66.4557 91.0619 67.685 90.831C66.5449 88.6192 65.3073 86.9286 64.4369 85.9791C63.4063 86.6662 61.8566 88.0925 60.3928 90.2148Z" fill="#FF4545"/>
<path d="M64.4369 85.9791C65.3073 86.9286 66.5449 88.6192 67.685 90.831C69.6731 90.4577 71.4146 89.5949 72.447 88.2517C69.8674 86.7537 67.0454 85.9791 64.4369 85.9791Z" fill="#B60000"/>
<path d="M47.4481 86.8062C47.5616 85.4841 48.0041 84.2462 48.6537 83.1813C46.6876 85.0391 45.0705 87.2804 43.9148 89.7897C44.9047 88.5191 46.1109 87.5429 47.4481 86.8062Z" fill="#FF0000"/>
<path d="M51.3765 116.841C50.0081 115.395 48.8824 113.753 48.0307 111.988C45.8418 110.049 44.2563 107.949 43.1564 106.183C44.7041 110.588 47.6197 114.321 51.3765 116.841Z" fill="#8B0000"/>
<path d="M60.2048 120.151C59.6276 119.524 59.0678 118.627 58.5608 117.505C55.0962 116.658 51.7821 114.965 49.2418 112.993C48.819 112.664 48.4156 112.328 48.0307 111.988C48.8824 113.753 50.0081 115.395 51.3765 116.841C53.9749 118.584 56.9758 119.747 60.2048 120.151Z" fill="#ED3E3E"/>
<path d="M66.3616 118.055C65.1215 118.138 63.7397 118.144 62.1858 118.058C60.9766 117.99 59.7597 117.798 58.5608 117.505C59.0678 118.627 59.6276 119.524 60.2048 120.151C61.0385 120.255 61.8874 120.309 62.7485 120.309C63.2702 120.309 63.7875 120.289 64.2995 120.25C65.0499 119.596 65.7381 118.865 66.3616 118.055Z" fill="#C40101"/>
<path d="M78.6436 112.739C75.5089 115.047 72.9117 117.617 66.3616 118.055C65.7381 118.865 65.0499 119.596 64.2995 120.25C70.0418 119.816 75.1367 116.99 78.6436 112.739Z" fill="#F52F2F"/>
<path d="M81.46 103.732C81.4646 106.68 80.6612 109.561 79.0712 112.203C81.4299 109.149 82.9932 105.418 83.4399 101.34C82.9211 102.276 82.2757 103.048 81.46 103.732Z" fill="#C20B0B"/>
<path d="M64.4369 85.9791C62.1877 85.3043 58.878 84.7195 55.4559 84.8352M64.4369 85.9791C61.7698 85.9791 58.9906 86.6074 56.4283 87.8176M64.4369 85.9791C63.4063 86.6662 61.8566 88.0925 60.3928 90.2148M64.4369 85.9791C65.3073 86.9286 66.5449 88.6192 67.685 90.831M64.4369 85.9791C67.0454 85.9791 69.8674 86.7537 72.447 88.2517M61.0605 120.871C60.7738 120.699 60.4872 120.457 60.2048 120.151M66.1252 120.871C65.7929 120.539 73.1515 118.958 76.2553 115.806C77.372 114.673 78.3114 113.465 79.0712 112.203M66.1577 85.8147C67.784 85.0791 70.6475 84.6621 73.4235 84.8277M83.6397 92.4757C83.3144 91.3201 82.7821 90.1196 80.3876 87.5528M64.9997 85.4163C64.895 83.9508 64.5216 81.6324 63.7426 79.7911M61.0602 76.9746C61.4957 77.0472 61.8884 77.2476 62.2414 77.5436M64.9997 85.9791C63.7163 84.4689 61.0282 82.5061 57.7042 81.5011M48.679 81.7344C49.5838 81.3795 50.4882 81.1413 51.3823 81.0014M61.623 121.434L54.3068 119.746L45.8653 112.993C43.0514 109.803 38.4366 101.174 42.4886 92.1697C42.8887 91.2807 43.3689 90.4904 43.9148 89.7897M65.5624 85.4163C66.7666 84.2121 68.8651 82.3819 70.8515 81.2453M74.5669 80.3513C74.132 80.1773 73.606 80.1826 73.0256 80.3193M51.4912 80.3513C50.3973 80.9846 49.3918 81.9713 48.6537 83.1813M77.9421 83.1652C79.0676 84.2907 80.677 85.2454 81.3203 87.6674C81.5466 88.5194 81.6664 89.2916 81.6773 89.999M41.9257 91.6069C42.0122 92.2989 42.1944 93.1229 42.4751 94.0219M84.6971 97.7975C84.3824 99.2135 83.9797 100.366 83.4399 101.34M83.0086 107.365C83.0086 107.928 83.0086 109.616 79.0692 112.43C78.9259 112.532 78.7842 112.635 78.6436 112.739M41.9257 103.988C42.2389 104.614 42.6452 105.363 43.1564 106.183M51.3823 81.0014C50.414 81.6506 49.5014 82.3803 48.6537 83.1813M51.3823 81.0014C53.6045 80.6539 55.7628 80.9142 57.7042 81.5011M51.3823 81.0014C54.5184 78.8993 58.2401 77.6418 62.2414 77.5436M48.6537 83.1813C48.0041 84.2462 47.5616 85.4841 47.4481 86.8062M48.6537 83.1813C46.6876 85.0391 45.0705 87.2804 43.9148 89.7897M47.4481 86.8062C49.858 85.4786 52.6936 84.9286 55.4559 84.8352M47.4481 86.8062C47.2738 88.8379 47.8766 91.0685 49.6993 93.1758M47.4481 86.8062C46.1109 87.5429 44.9047 88.5191 43.9148 89.7897M55.4559 84.8352C55.4672 84.7315 55.4825 84.6265 55.5021 84.5202C55.7276 83.2949 56.5458 82.2758 57.7042 81.5011M55.4559 84.8352C55.3305 85.9918 55.7143 86.9854 56.4283 87.8176M57.7042 81.5011C59.2935 80.4382 61.5235 79.8354 63.7426 79.7911M49.6993 93.1758C51.5017 90.8345 53.8557 89.0328 56.4283 87.8176M49.6993 93.1758C49.7337 93.2157 49.7686 93.2555 49.804 93.2952C51.2871 94.9638 54.0528 96.1437 57.2761 96.8954M49.6993 93.1758C48.5381 94.6842 47.6058 96.4165 46.9914 98.3602C46.7005 99.2803 46.4872 100.211 46.348 101.144M56.4283 87.8176C57.3378 88.8776 58.7827 89.6757 60.3928 90.2148M57.2761 96.8954C58.0271 94.2075 59.1805 91.9725 60.3928 90.2148M57.2761 96.8954C56.9532 98.051 56.7047 99.2903 56.558 100.611C56.3065 102.874 56.2517 105.053 56.3495 107.091M57.2761 96.8954C61.3996 97.8571 66.2721 98.118 70.1667 97.8044M60.3928 90.2148C61.4984 90.585 62.6819 90.8331 63.8233 90.96C65.132 91.1056 66.4557 91.0619 67.685 90.831M70.1667 97.8044C69.6333 95.1713 68.6976 92.7955 67.685 90.831M70.1667 97.8044C72.4692 97.619 74.4299 97.2328 75.6919 96.6719C77.0195 96.0819 78.1195 95.4904 78.9987 94.8581M70.1667 97.8044C70.4565 99.2351 70.6275 100.742 70.6275 102.3C70.6275 104.372 70.4954 106.286 70.237 108.048M67.685 90.831C69.6731 90.4577 71.4146 89.5949 72.447 88.2517M56.3495 107.091C60.9947 108.354 66.1223 108.528 70.237 108.048M56.3495 107.091C53.4949 106.314 50.8224 105.126 48.679 103.425C47.8175 102.742 47.0411 101.968 46.348 101.144M56.3495 107.091C56.5539 111.348 57.4244 114.991 58.5608 117.505M70.237 108.048C72.4122 107.794 74.3043 107.357 75.6925 106.802C78.235 105.785 80.0883 104.883 81.46 103.732M70.237 108.048C69.6261 112.212 68.3091 115.522 66.3616 118.055M46.348 101.144C44.4395 98.874 43.1622 96.2228 42.4751 94.0219M46.348 101.144C45.7909 104.877 46.422 108.653 48.0307 111.988M43.9148 89.7897C43.2976 91.1299 42.8119 92.5465 42.4751 94.0219M42.4751 94.0219C42.1157 95.5958 41.9257 97.2366 41.9257 98.923C41.9257 101.472 42.3599 103.917 43.1564 106.183M66.3616 118.055C65.1215 118.137 63.7397 118.144 62.1858 118.058C60.9766 117.99 59.7597 117.798 58.5608 117.505M66.3616 118.055C72.9117 117.617 75.5089 115.047 78.6436 112.739M66.3616 118.055C65.7381 118.865 65.0499 119.596 64.2995 120.25M58.5608 117.505C55.0962 116.658 51.7821 114.965 49.2418 112.993C48.819 112.664 48.4156 112.328 48.0307 111.988M58.5608 117.505C59.0678 118.627 59.6276 119.524 60.2048 120.151M48.0307 111.988C45.8418 110.049 44.2563 107.949 43.1564 106.183M48.0307 111.988C48.8824 113.753 50.0081 115.395 51.3765 116.841M43.1564 106.183C44.7041 110.588 47.6197 114.321 51.3765 116.841M78.9987 94.8581C79.0223 94.8998 79.0458 94.9416 79.0692 94.9836C80.6654 97.8536 81.4556 100.825 81.46 103.732M78.9987 94.8581C77.3602 91.9677 75.0246 89.7485 72.447 88.2517M78.9987 94.8581C80.8361 93.5366 81.7088 92.0367 81.6773 89.999M81.46 103.732C81.4646 106.68 80.6612 109.561 79.0712 112.203M81.46 103.732C82.2757 103.048 82.9211 102.276 83.4399 101.34M78.6436 112.739C78.7888 112.563 78.9314 112.384 79.0712 112.203M78.6436 112.739C75.1367 116.99 70.0418 119.816 64.2995 120.25M79.0712 112.203C81.4299 109.149 82.9932 105.418 83.4399 101.34M72.447 88.2517C72.9983 87.5345 73.3474 86.6804 73.4241 85.6907C73.4476 85.3879 73.4468 85.1005 73.4235 84.8277M81.6773 89.999C81.2983 89.1523 80.867 88.3355 80.3876 87.5528M81.6773 89.999C82.8933 92.715 83.5714 95.7377 83.5714 98.923C83.5714 99.7402 83.5268 100.547 83.4399 101.34M80.3876 87.5528C80.2411 87.3957 80.0875 87.2334 79.9267 87.0658C78.5739 85.6562 76.0375 84.9836 73.4235 84.8277M80.3876 87.5528C78.5559 84.5618 76.0229 82.0695 73.0256 80.3193M73.4235 84.8277C73.2793 83.1347 72.2722 82.0033 70.8515 81.2453M73.0256 80.3193C72.3549 80.4772 71.6114 80.8105 70.8515 81.2453M73.0256 80.3193C69.9934 78.5486 66.4859 77.5374 62.7485 77.5374C62.579 77.5374 62.41 77.5395 62.2414 77.5436M70.8515 81.2453C69.2471 80.3894 67.1154 80.0097 65.103 79.8354C64.6538 79.7965 64.1984 79.782 63.7426 79.7911M62.2414 77.5436C62.8561 78.0591 63.3507 78.8647 63.7426 79.7911M51.3765 116.841C52.4075 117.93 53.5764 118.909 54.8696 119.746C57.7869 121.634 63.3113 121.809 62.7485 121.434C63.2917 121.072 63.8089 120.678 64.2995 120.25M51.3765 116.841C53.9749 118.584 56.9758 119.747 60.2048 120.151M60.2048 120.151C61.0385 120.255 61.8874 120.309 62.7485 120.309C63.2702 120.309 63.7875 120.289 64.2995 120.25" stroke="black"/>
<path d="M34.0469 77.5382C34.0469 77.5382 39.7554 49.2067 52.0558 37.018C54.7143 34.3836 60.1223 30.2648 59.372 30.8276L62.7486 34.7669C57.4933 35.1173 40.985 52.5794 35.1724 78.1009C34.6097 78.1009 34.0469 77.5382 34.0469 77.5382Z" fill="black" stroke="black" stroke-miterlimit="11.4737"/>
<path d="M40.7998 7.16477C69.4686 21.7361 64.892 67.6917 64.7082 86.186H65.9452C65.2645 84.4463 74.5249 40.6702 60.4971 17.8834C55.9827 10.5502 46.3129 1 46.3129 1C46.3129 1 42.7516 4.58609 40.7998 7.16477Z" fill="black"/>
<path d="M65.9452 86.186H64.7082C64.892 67.6917 69.4686 21.7361 40.7998 7.16477C42.7516 4.58609 46.3129 1 46.3129 1C46.3129 1 55.9827 10.5502 60.4971 17.8834C74.5249 40.6702 65.2645 84.4463 65.9452 86.186ZM65.9452 86.186C64.3117 84.8542 63.3381 86.186 65.9452 86.186Z" stroke="black" stroke-miterlimit="11.4737"/>
<path d="M57.9905 29.7547C57.9905 29.7547 79.979 25.7823 89.3443 34.7821C98.7095 43.7818 105.955 53.9201 105.955 53.9201C105.955 53.9201 88.2685 63.4175 76.8858 55.6607C65.5031 47.9039 57.9905 29.7547 57.9905 29.7547Z" fill="black" stroke="black" stroke-miterlimit="11.4737"/>
<path d="M59.3514 30.1429C59.3514 30.1429 78.6216 29.1123 88.0506 36.0531C97.4795 42.9939 100.759 50.4805 104.109 53.9209C96.6596 56.1483 81.7053 59.6785 75.0389 52.7608C68.3725 45.8431 59.3514 30.1429 59.3514 30.1429Z" fill="#0F6546" stroke="black" stroke-miterlimit="11.4737"/>
<path d="M60.9751 30.5697C55.6306 25.6179 41.8545 17.7964 29.5065 26.124C14.0714 36.5335 16.9995 37.4367 5.95068 42.7076C15.2038 47.1624 30.1569 47.1175 39.5782 45.7771C48.9995 44.4367 55.7988 32.2072 60.9751 30.5697Z" fill="black" stroke="black" stroke-miterlimit="11.4737"/>
<path d="M61.0602 29.7026C56.3225 25.313 42.2766 19.345 31.3305 26.7271C17.6479 35.9548 21.2617 41.9179 10.4105 42.6465C23 44.1489 32.5 44.9377 40.2588 44.1489C48.0175 43.36 56.4716 31.1542 61.0602 29.7026Z" fill="#0F6546" stroke="black" stroke-miterlimit="11.4737"/>
<path d="M100.419 54.5009C100.419 54.5009 86.1142 57.9806 81.0381 56.2401C75.962 54.4995 73.1423 53.1228 70.0124 47.9038C66.8825 42.6848 60.5834 30.9002 60.5834 30.9002C60.5834 30.9002 74.932 28.3239 80.5771 41.7418C86.2223 55.1596 100.419 54.5009 100.419 54.5009Z" fill="#00C57E" stroke="black"/>
<path d="M7.03154 42.6467C7.03154 42.6467 12.2893 44.861 17.7254 43.7706C23.1614 42.6801 30.1057 38.7072 34.0452 34.205C42.4858 23.5117 58.2459 27.4501 58.2459 27.4501C58.2459 27.4501 39.6728 16.758 25.0401 31.391C10.4075 46.0241 7.03154 42.6467 7.03154 42.6467Z" fill="#00C57E" stroke="black"/>
<path d="M91 51.9375C87.2106 50.2292 87.6843 49.0914 81.5265 40.5499C79.5236 37.6607 77.7058 34.8147 74.8946 33.1469C71.0572 30.8704 67.3157 29.1612 64 30.2998C66.8421 30.2998 70.8053 30.9776 74.8946 34.2858C76.5684 35.6399 79.6318 40.55 79.6318 40.55C79.6318 40.55 85.0753 50.7504 91 51.9375Z" fill="black" stroke="black" stroke-miterlimit="11.4737"/>
<path d="M21.6656 42.6463C25.605 40.9579 28.3363 38.4 32.3584 35.3301C35.3523 33.045 36.4211 30.8647 39.7932 29.1872C44.1396 27.025 48.3236 26.3324 52.0557 27.1479C48.8568 27.1479 44.0281 27.5047 39.7932 30.0029C37.4492 31.3857 34.4612 34.4898 34.4612 34.4898C34.4612 34.4898 28.4189 41.5207 21.6656 42.6463Z" fill="black" stroke="black" stroke-miterlimit="11.4737"/>
<path d="M41.3623 6.62752C42.713 4.82662 45.3018 2.50047 46.4273 1.5625C45.6769 3.06325 43.9511 6.1773 43.0506 6.62752C42.1502 7.07774 41.5499 6.81511 41.3623 6.62752Z" fill="white"/>
<path d="M44.7393 6.62696C45.1895 6.17673 46.4276 3.81306 46.9904 2.6875C47.178 3.62547 47.328 5.61396 46.4276 6.06418C45.5271 6.5144 44.9269 6.62696 44.7393 6.62696Z" fill="white"/>
<path d="M35.1719 71.9105C36.2159 67.9812 38.6954 60.1228 40.2614 57.1759C41.8274 54.2289 43.1324 52.1415 43.7849 51.6504L44.1764 54.5973C44.1764 54.5973 40.8589 59.6543 39.0869 63.0697C37.343 66.4308 35.1719 71.9105 35.1719 71.9105Z" fill="white" stroke="black"/>
<path d="M65.5625 70.6919L67.8136 69.6582L66.4629 86.5416H65.5625V70.6919Z" fill="white" stroke="black"/>
<path d="M46.9905 7.75391H42.4883C44.7394 9.44225 50.0295 13.4943 53.1811 16.1956C55.8248 18.4617 58.3894 23.7903 59.8116 27.3312C59.5653 26.4614 59.2383 25.2293 58.8089 23.5117C57.4582 18.1091 50.3672 10.7554 46.9905 7.75391Z" fill="white"/>
<path d="M42.4883 7.75391C43.839 7.75391 46.0526 7.75391 46.9905 7.75391M42.4883 7.75391C44.7394 9.44225 50.0295 13.4943 53.1811 16.1956C55.8248 18.4617 58.3894 23.7903 59.8116 27.3312M42.4883 7.75391H46.9905M46.9905 7.75391C50.3672 10.7554 57.4582 18.1091 58.8089 23.5117C59.2383 25.2293 59.5653 26.4614 59.8116 27.3312M59.8116 27.3312C60.0848 28.0114 60.3159 28.6257 60.4972 29.1395C60.4972 29.3955 60.3401 29.1975 59.8116 27.3312Z" stroke="black"/>
<path d="M38.5489 27.6947C38.5489 27.6947 34.6745 28.9709 31.9526 30.3189C28.7118 31.9239 22.791 35.8931 22.791 35.8931C22.791 35.8931 29.7025 28.7731 32.4245 27.4251C35.1464 26.077 38.5489 27.6947 38.5489 27.6947Z" fill="white" stroke="black"/>
<path d="M37.4229 25.7832L40.5744 26.8878L45.3018 25.2309C43.3758 24.6786 39.1037 24.0159 37.4229 25.7832Z" fill="white" stroke="black"/>
</g>
<defs>
<filter id="filter0_d_3784_415" x="0.793945" y="0.292969" width="109.891" height="130.268" filterUnits="userSpaceOnUse" color-interpolation-filters="sRGB">
<feFlood flood-opacity="0" result="BackgroundImageFix"/>
<feColorMatrix in="SourceAlpha" type="matrix" values="0 0 0 0 0 0 0 0 0 0 0 0 0 0 0 0 0 0 127 0" result="hardAlpha"/>
<feOffset dy="4"/>
<feGaussianBlur stdDeviation="2"/>
<feComposite in2="hardAlpha" operator="out"/>
<feColorMatrix type="matrix" values="0 0 0 0 0 0 0 0 0 0 0 0 0 0 0 0 0 0 0.25 0"/>
<feBlend mode="normal" in2="BackgroundImageFix" result="effect1_dropShadow_3784_415"/>
<feBlend mode="normal" in="SourceGraphic" in2="effect1_dropShadow_3784_415" result="shape"/>
</filter>
</defs>
</svg>
